<?xml version="1.0" encoding="utf-8"?>
<!-- Generator: Adobe Illustrator 25.4.1, SVG Export Plug-In . SVG Version: 6.00 Build 0)  -->
<svg version="1.1" id="Layer_1" xmlns="http://www.w3.org/2000/svg" xmlns:xlink="http://www.w3.org/1999/xlink" x="0px" y="0px"
	 viewBox="0 0 183 52.7" enable-background="new 0 0 183 52.7" xml:space="preserve">
<path fill="#040404" d="M100.1,42.5c0-0.1-0.1-0.1-0.2-0.1c0,0,0,0,0,0c-0.6,0.2-0.6-0.2-0.6-0.5c0-0.9,0-1.8,0-2.7
	c0-0.3-0.1-0.4-0.4-0.4s-0.7,0.3-0.7-0.4c0-0.2-0.3,0-0.5-0.1h-0.4h-0.9v-0.1h1.3c0.2,0,0.4,0.1,0.2-0.2c-0.1-0.1,0-0.2,0-0.2
	c0,0,0,0,0.1,0c0.1-0.1,0.2,0,0.3,0.1c0.1,0.3,0.4,0.4,0.7,0.3c0.4,0,0.8,0,1.2,0c0.3,0,0.7,0,1,0c0.2,0,0.7,0.2,0.5-0.4
	c0-0.2,0.3-0.3,0.5-0.3s0.3,0.2,0.3,0.4c0,0.6,0.3,0.4,0.6,0.2h0.2c0.1,0.3,0.3,0.2,0.5,0.2h6.8c0.3,0,0.6,0,0.8,0.2
	c-0.2,0-0.4,0.1-0.4,0.3c0,0.4,0.2,0.9-0.6,0.7c0.1,0.3,0.3,0.1,0.4,0.3v0.2c-1.6,0.5-3.2,0.6-4.9,0.5c-0.2,0-0.5,0-0.7,0
	c-0.5-0.1-0.8-0.5-0.7-1c0.1,0,0.2-0.1,0.2-0.3c0-0.1-0.1-0.1-0.2-0.1v-0.1c0-0.2,0.1-0.4-0.2-0.5c-0.1,0-0.2,0-0.2,0.1
	c0,0.2,0.1,0.4,0.3,0.4c0,0,0.1,0,0.1,0v0.1l-0.1,0.1c-0.1,0.1-0.2,0.2-0.2,0.4c-0.1,0.9-0.1,0.9-1,0.8c0.4-0.2,0-0.6,0.1-0.8
	c0,0-0.1-0.1-0.2-0.1s-0.3,0.2-0.2,0.4c0.2,0.5-0.1,0.6-0.5,0.6s-0.8-0.2-1,0.1s0,0.7-0.1,1c-0.1,0-0.1,0-0.1,0.1s0.1,0.1,0.1,0.1
	c0.6-0.1,1.2-0.1,1.8,0v0.1c-0.2,0.2-0.4,0-0.6,0.2c-0.7,0-1.4,0.1-2,0.4c-0.1,0-0.2,0.1-0.1,0.2s0.2,0,0.2-0.1
	c0.6,0,1.2-0.1,1.8-0.3c0.5,0,1-0.4,1.4,0.1c0.1,0.1,0.2,0,0.2-0.1c0.3-0.7,0.9-0.4,1.4-0.6c0.1,0,0.2,0,0.3,0.1
	c0,0.1,0,0.2-0.1,0.2s-0.2,0.3-0.1,0.6c0.2-0.3,0.6-0.3,0.3-0.8c-0.1-0.1,0.1-0.2,0.2-0.2c1.2,0.2,2.4-0.1,3.6,0.1
	c0.3,0,0.6,0.4,0.7,0.7s-0.2,0.3-0.4,0.4s-0.1,0.3-0.1,0.4c0,0.9,0,1.7,0,2.6c0,0.4-0.1,0.5-0.5,0.5c-0.7,0-1.3,0.1-2,0.1
	c0.7,0.3,1.3,0.1,1.9,0.1c0.3,0,0.6,0,0.6,0.5s-0.1,0.6-0.6,0.6c-0.9,0-1.8,0-2.7,0c-0.4,0-0.8-0.2-1.2,0c0,0-0.1,0-0.2-0.1
	c-0.3-0.4-0.3-0.4-0.5,0.1c0-0.4-0.5-0.3-0.7-0.7c-0.1,0.2-0.6-0.2-0.6,0.3c0,0.3-0.1,0.4-0.4,0.3c-0.5,0-0.9,0-1.4,0
	s-0.5,0.1-0.4,0.5c0,0.2,0,0.4,0,0.6c0.1,0.2,0,0.4,0.5,0.3c0.7-0.1,1.3-0.1,2,0c0.3,0,0.1,0.3,0.2,0.4c0.2-0.2,0.4-0.4,0.7-0.4
	c0.2,0,0.4-0.1,0.6,0s0.1,0.4,0.1,0.6l0,0c-0.2,0.1-0.5-0.1-0.8,0.1c-0.1,0.1-0.1-0.2-0.2-0.3c-0.2,0.2-0.3,0.5-0.3,0.8
	c0,0.3-0.3,0.4-0.4,0.3c-0.4-0.2-0.6,0.1-0.9,0.2c0.5,0.1,1.1,0.1,1.6,0.1c1.3-0.1,2.5,0,3.8,0c0.9,0,1.8,0,2.7,0.1
	c0.1,0,0.2,0,0.3,0.2s-0.2,0.2-0.3,0.2s-0.3,0-0.4,0s-0.2,0-0.1,0.2s-0.1,0.3-0.2,0.4s-0.2,0.1-0.3-0.1s0.1-0.5-0.2-0.5
	s-0.6-0.1-0.9,0.1c0,0,0,0.1-0.1,0.1s0-0.1,0-0.1s0-0.1,0-0.1c-0.3-0.2-0.8-0.2-1.1,0c-0.1,0.1-0.2,0.2-0.3,0.1
	c-0.3-0.4-0.7-0.2-1-0.2c-1.5,0-3,0-4.6,0c-0.2,0-0.5-0.1-0.4,0.3s-0.2,0.2-0.3,0.2c-0.5,0-1,0-1.5,0c-0.2,0-0.4-0.1-0.4-0.3
	c0-1.1,0-2.2,0-3.4c0-0.2,0.1-0.5,0.3-0.6c0.3-0.2,0.2-0.4,0-0.6c-0.2,0.1,0,0.7-0.5,0.3c0.1,0.5-0.2,1.1-0.8,1.2
	c-0.1,0-0.2,0-0.3,0c-0.2-0.1-0.5-0.1-0.7,0l0.7,0.1c0,0.1,0.2,0.2,0.1,0.4l-0.1,0.1c-0.1,0.2-0.3,0.3-0.5,0.3
	c-0.4,0.2-0.6,0.4-0.3,0.8s0,0.3-0.1,0.4c-0.6,0.3-1.2,0.4-1.8,0.6c-0.2,0-0.3,0-0.4-0.2l-0.4-1.2c-0.1-0.2,0-0.3,0.2-0.3
	c0.5-0.1,1.1-0.2,1.5-0.5c0.2,0.1,0.1,0.2,0.1,0.3s0,0.2,0.2,0.1s0.1,0.3,0.2,0.3s0-0.2,0.1-0.3c0.4-0.2,0.5-0.4,0.1-0.7
	c0,0,0.1-0.4,0.1-0.5c0.5-1,0.5-2.2,0.2-3.2c-0.1-0.5-0.4-0.8-0.9-1c-0.2-0.1-0.3-0.5-0.6-0.3c-0.1,0.1-0.3,0.1-0.2,0.3
	c0,0.4-0.2,0.4-0.5,0.5l-0.5,0.1c-0.6,0.2-0.6,0.2-0.6-0.4c0-0.1-0.1-0.3-0.2-0.2c-0.3,0.2-0.7,0.1-1,0.5s-0.5,0.6-0.7,1
	c-0.6-0.1-1.3-0.2-1.9-0.2c-0.7,0-1.3,0-2,0c0,0.3,0.3,0.2,0.3,0.4s-0.3,0.1-0.3,0.3c0.4,0,0.6,0.3,0.6,0.7c0,0,0,0,0,0
	c0,0.3-0.4,0.2-0.7,0.2c-0.8,0-1.6,0-2.4,0.1c-0.2,0-0.4,0.1-0.4,0.3s0.3,0.3,0.4,0.2c1.1-0.1,2.3-0.1,3.4,0c0.2,0,0.5-0.1,0.4,0.2
	s0.2,0.8-0.5,0.8s-1.3,0-1.9,0h-1.6c-0.1,0-0.2,0-0.2,0.1s0.1,0.2,0.2,0.2s0.3,0,0.4,0c0.4,0.1,0.8-0.2,1.2-0.1c1,0.2,2.1,0,3.1,0.1
	c0.3,0,0.3,0,0.2-0.3c-0.1-0.8-0.5-1.6-0.2-2.5c0-0.1,0-0.2-0.1-0.2c-0.2,0.4-0.9,0.3-1.4-0.1c1.1-0.3,2.2-0.4,3.3-0.2
	c-0.2,0.7-0.2,1.4-0.1,2.2c0.1,0.3,0.2,0.5,0.5,0.6s0.5-0.2,0.6-0.5c0.4-0.8,0.6-1.7,0.8-2.6c0.1-0.4,0.3-0.4,0.5-0.3
	c0.2,0.1,0.3,0.1,0.5,0c0.4-0.2,0.6-0.1,0.5,0.3c-0.3,1.7-0.5,3.5-1.9,4.7c-0.1,0.1,0.2,0.7-0.4,0.4c-0.3-0.2-0.6,0-0.9,0
	c-0.3-0.1-0.6-0.1-0.9-0.2c-0.2,0-0.1-0.1-0.1-0.2c0-0.2-0.2-0.4-0.4-0.4c-0.2,0-0.3,0.1-0.3,0.3s-0.2,0.2-0.3,0.2c-1.3,0-2.7,0-4,0
	c-0.8,0-0.8,0-0.9,0.7c0,0.1,0,0.3-0.1,0.4c-0.3,0.6,0,0.5,0.4,0.5c3.3-0.2,6.6,0,9.8,0h0.2l0,0L91,51.3l-9.2,0.1h-0.3
	c-0.2,0-0.5,0-0.5-0.2s0.2-0.2,0.5-0.3c-0.3,0-0.5-0.1-0.6-0.4s-0.1-0.5,0.3-0.5s0.9,0,1.4,0c0.2,0,0.5,0,0.4-0.3s-0.3-0.2-0.5-0.2
	c-1.5,0-2.9,0-4.4-0.1c-0.4,0-0.4,0.3-0.4,0.5c0,0.4-0.2,0.5-0.6,0.5c-0.8,0-1.7,0-2.6,0.1c-0.2,0-0.3,0-0.5,0.2
	c0.4,0.2,0.9,0.3,1.3,0.2c0.6,0,1.2,0,1.8,0c0.2,0,0.3,0,0.3,0.3c-1.8,0.1-3.6,0.1-5.3-0.1c-0.2,0-0.3,0-0.3-0.3
	c0-0.1-0.1-0.2-0.2-0.2c-0.2,0-0.2,0.1-0.1,0.3s0,0.2-0.2,0.2S71,51.2,71,51c-0.2-0.4-0.5-0.6-0.8-0.8c0,0-0.1,0-0.1-0.1
	c-0.2-0.3-0.5-0.4-0.9-0.5c-0.2,0-0.3,0.1-0.2,0.2c0.2,0.3-0.2,0.3-0.3,0.5s-0.3,0-0.4-0.1s-0.3-0.5-0.6-0.5s-0.3,0.4-0.5,0.6
	c-0.4,0.4-0.8,0.8-1.3,1.1c-0.2-0.8-0.4-1.5-0.6-2.3c-0.1-0.2,0-0.4,0.2-0.5c0,0,0,0,0,0c0.1-0.1,0.2-0.2,0.4-0.2
	c0.4-0.1,0.7-0.6,0.6-1c-0.1-0.4,0.1-0.6,0.6-0.5c0.4,0.1,0.8,0.1,1.3,0.2c0.2,0,0.2,0.1,0.2,0.3c0.1,0.6,0.5,1,1,1.3
	c-0.7,0.4-1.5,0.2-2.1,0.6c0.4,0.1,0.8,0,1.2-0.1c0.8-0.3,1.7-0.4,2.6-0.3c0.2,0,0.4,0,0.2,0.3c-0.1,0.1,0.1,0.3,0.3,0.3
	s0.6,0,0.7-0.3s0.3-0.3,0.6-0.2c-0.3,0.3-0.1,0.6-0.1,0.9c-0.2,0.1-0.3-0.1-0.5-0.1c-0.6,0-1.2-0.3-1.7,0.2c0.3,0.2,0.6,0.1,0.9,0.3
	s0.7,0.4,0.8-0.3c0.3,0.4,0.9,0.5,1.3,0.1c0.1-0.1,0.2-0.2,0.3-0.4c0.1-0.1,0.2-0.2,0-0.3s-0.1-0.1-0.2-0.1c-0.1,0-0.2,0.1-0.2,0.2
	c0,0,0,0,0,0c0.1,0.5-0.2,0.2-0.4,0.2c-0.1-0.5,0.3-0.9,0.8-1c0,0,0,0,0.1,0c1.2,0,2.4,0,3.7,0c0.2,0,0.4,0,0.4-0.3s0.3-0.2,0.4-0.2
	h4c0.1,0,0.2,0,0.3,0c0.2,0,0.3,0,0.3-0.2s-0.2-0.2-0.3-0.2c-1.1,0-2.2,0-3.3,0c-0.5,0-0.5-0.2-0.6-0.6s0.2-0.4,0.5-0.4
	c1.2-0.1,2.4-0.1,3.7,0c0.5,0.2,1,0.2,1.5-0.1c-0.5-0.1-1,0.1-1.5,0c0-0.3-0.1-0.5-0.5-0.5c-1,0-2,0-3.1,0C79,46.4,79,46,79,45.6
	s0.3-0.3,0.5-0.3c0.2,0,0.4,0,0.6,0c0.2,0,0.4,0,0.3-0.3s-0.1-0.3-0.3-0.3c-0.6,0-1.1,0-1.7,0c-0.4,0-0.5-0.2-0.4-0.5
	s-0.2-0.7,0.4-0.7h1.7c0.1,0,0.3,0,0.3-0.2S80.2,43,80.1,43c-0.2,0-0.3,0-0.5,0c-0.5,0-1,0-1.5-0.2c-0.4-0.2-0.9-0.1-1.2,0.3
	c-0.2,0.2-0.6,0.1-0.9,0.1c-0.3,0-0.5,0-0.8,0c-0.2,0-0.4,0.1-0.4,0.3s0.1,0.4,0.4,0.4h1.4c0.3,0,0.4,0,0.4,0.4c0,1,0,1-1,1
	c-0.2,0-0.5,0-0.8,0s-0.4,0.1-0.4,0.4S75,46,75.3,46c0.6,0,1.2,0,1.8,0c0.3,0,0.4,0.1,0.4,0.4c0,0.5,0,1,0,1.4
	c0,0.3-0.1,0.4-0.4,0.3c-0.9,0-1.8,0-2.8-0.1c-0.3,0-0.4,0-0.3-0.4c0.1-0.4,0.1-0.7,0-1.1c-0.3,0.4-0.5,0.8-0.5,1.2
	c0,0.3-0.3,0.3-0.4,0.2S72.8,48,72.5,48c-1,0.1-2,0.2-3,0.1c-0.5,0-0.2-0.5-0.3-0.8s0.1-0.4,0.3-0.3c1,0.1,2.1,0,3.1-0.3
	c-0.5-0.1-1-0.1-1.6,0c-0.6,0.1-1.2,0-1.7-0.3c-0.1-0.1-0.2-0.2-0.2-0.4c0-0.8,0-1.5,0-2.3c0-0.2,0-0.5-0.4-0.3s-0.2-0.3-0.5-0.3
	s-0.1,0.3-0.1,0.5c0,0.8,0,1.6,0,2.4c0,0.2,0,0.4-0.3,0.4s-0.7,0.1-1,0.1c-0.7,0-0.7,0-0.7-0.6c0-0.1,0-0.3,0-0.4
	c0-0.4-0.1-0.5-0.5-0.5s-0.6-0.1-0.6-0.6c0.1-0.4,0.1-0.9,0-1.3c-0.1-0.3,0.1-0.4,0.4-0.4h2.1c0.1,0,0.2,0,0.3-0.1s-0.1-0.2-0.1-0.3
	c-0.3-0.3-0.2-0.5,0.1-0.8c0.4-0.4,0.8-0.9,1.1-1.3c0.1-0.2,0.2-0.3,0.4-0.4c0.2-0.1,0.5-0.2,0.2-0.4c0,0,0-0.2,0.1-0.2
	c0.3-0.4,0.4-0.9,0.6-1.4c0.1-0.3,0.2-0.4,0.6-0.3c0.4,0.1,0.8,0.2,1.2,0.2c0.3,0,0.4,0.2,0.2,0.4c-0.1,0.1-0.1,0.2-0.1,0.4
	c0,0.2-0.4,0.4,0,0.6s0.7,0.2,0.9-0.2c0.2-0.3,0.3-0.7,0.4-1c0.1-0.3,0.2-0.4,0.5-0.3c0.4,0.1,0.9,0.1,1.3,0.2
	c0.3,0,0.4,0.2,0.2,0.5C75.1,39,75.1,39,76.1,39c0.3,0,0.6,0,0.9,0s0.5-0.1,0.4,0.3s-0.3,0.2-0.5,0.2l-2,0.1c-0.1,0-0.1,0-0.2,0.1
	c0.1,0.2,0.3,0.1,0.5,0.1c0.6-0.1,1.2-0.1,1.8-0.1c0.3,0,0.3,0.1,0.3,0.4c0.1,1,0,1.1-1,1c-0.4,0-0.8,0-1.2,0
	c-0.3,0-0.4,0.1-0.4,0.4s0.1,0.3,0.4,0.3c0.4,0,0.9,0,1.3,0s0.5,0.1,0.5,0.4s0,0.6,0.4,0.4s1,0.3,0.9-0.5c0-0.4,0.1-0.4,0.4-0.4
	s0.8-0.2,1.1,0.3c0,0.1,0.4,0.1,0.6-0.1s1.2-0.1,1.6,0c0.5,0.2,0.6,0.7,0.9,0.9c0.1-0.1,0.1-0.2,0-0.2c-0.2-0.2-0.2-0.5-0.1-0.8
	c0.2-0.2,0.5-0.2,0.8-0.2s0.6,0.1,0.6,0.6c0,0.8,0,0.8-0.8,0.8c-0.3,0-0.6,0-0.9,0s-0.3,0-0.3,0.2s0.2,0.2,0.3,0.2h2.4
	c0.2,0,0.4,0,0.2-0.2c-0.4-0.4-0.1-0.5,0.2-0.6c0.1,0,0.2,0,0.2-0.2c-0.1-0.1-0.3-0.1-0.5-0.1c-0.4,0-0.5-0.2-0.4-0.5s0.2-0.4,0-0.7
	c-0.1-0.1,0-0.3,0.2-0.3c0.5,0,0.3-0.2,0.1-0.3s-0.1-0.2-0.2-0.2c-0.4-0.4-0.7-0.7,0-1.1c0.3-0.2,0.3-0.7,0.3-1.1s0-0.4,0.3-0.4h6.6
	v0.2c-0.8,0.1-1.6,0.1-2.4,0.2c-0.4,0-0.5,0.1-0.4,0.5S88.8,39,88.5,39c-0.6-0.1-1.2,0-1.8,0.3c-0.1,0.1-0.2,0.1-0.2,0.1
	c-0.1,0.5-0.4,1-0.7,1.4C85.7,40.9,86,41,86.1,41h3.2c0.2,0,0.4,0,0.5,0.2s0.3-0.2,0.6,0c-0.2,0.1,0.2,0.6-0.4,0.6
	c-0.1,0-0.1,0.1-0.1,0.2c0,0.5-0.3,1-0.8,1.2c-0.1,0.1-0.3,0.2-0.3,0.3s0.3,0.1,0.4,0.1h0.2c1,0.2,1,0.2,1.6-0.6
	c0.4-0.6,0.9-1,1.6-1.3c0.3-0.1,0.6-0.3,0.8-0.5c0.1-0.1,0.3-0.3,0.4,0c0,0,0.1,0,0.1,0c0.6-0.6,1.1,0.1,1.6,0.1
	c0.6,0,1.2,0.2,1.7,0.6c0.2,0.1,0.4,0.2,0.4,0.4c-0.5,0.2-1.1,0-1.6,0.2c0.3,0.3,0.7,0.4,1,0.2c0.3-0.1,0.7-0.1,1,0
	c0.2,0,0.3,0.2,0.3,0.4s-0.2,0.2-0.3,0.3c0.7-0.1,0.7,0.4,0.8,0.9c-0.2,0-0.1-0.3-0.3-0.2s-0.1,0.3,0,0.4s0.1,0.4,0.3,0.4
	s0.2-0.2,0.2-0.3c0.1-0.5,0.2-1,0.1-1.4c0-0.3,0-0.4,0.3-0.4c1.1,0.3,2.2-0.3,3.2-0.3c0.1,0,0.3-0.1,0.3-0.2c0-0.1,0.2-0.2,0-0.3
	c-0.1-0.1-0.2-0.1-0.2,0c-0.4,0.3-0.9,0.4-1.4,0.3c-0.3,0-0.6,0.2-0.9,0.2c-0.2,0-0.4,0-0.6-0.1L100.1,42.5z M101.5,44.7
	c-0.2,0.7,0.3,0.6,0.7,0.6c0.4,0.1,0.9,0.1,1.3,0c0.3-0.1,0.3,0.5,0.6,0.2s0.7-0.1,1-0.1c0.6,0,1.1,0,1.6,0c1.2,0,1.2,0,1.2-1.2
	c0-0.3-0.1-0.5-0.5-0.5h-5.2c-0.9,0-1.6,0.7-1.7,1.6C100.9,45.1,101,44.6,101.5,44.7L101.5,44.7z M84.3,44.1
	c0.3,0.9-0.2,0.8-0.6,0.8s-0.7,0-1,0s-0.5,0-0.5,0.3s0.3,0.3,0.5,0.3h0.3c1.5,0,3.1-0.1,4.6-0.2c0.1,0,0.2,0,0.3-0.1s0-0.2-0.1-0.2
	c-0.4-0.1-0.7-0.4-1.2-0.3l-1.4,0.5c-0.2,0.1-0.4,0-0.4-0.2C84.8,44.6,84.6,44.3,84.3,44.1z M72.3,42h0.4c0.2,0,0.4,0,0.4-0.3
	s-0.1-0.4-0.4-0.4h-0.9c-0.2,0-0.3,0.1-0.3,0.3c0,0,0,0.1,0,0.1c0,0.2,0.1,0.4,0.3,0.3L72.3,42z M72.3,46.2h0.3
	c0.2,0,0.5,0.1,0.5-0.3s-0.3-0.4-0.5-0.4s-0.5,0-0.8,0s-0.3,0.1-0.3,0.3s0,0.4,0.3,0.4S72.1,46.2,72.3,46.2L72.3,46.2z M72.3,43.4
	c-0.2,0-0.4,0-0.6,0c-0.2,0-0.3,0.1-0.3,0.3s0,0.4,0.3,0.4c0.4,0,0.8,0,1.2,0c0.3,0,0.2-0.3,0.2-0.4s-0.1-0.2-0.3-0.2L72.3,43.4z
	 M87.1,42.4c-0.2,0-0.5-0.1-0.8,0.1c0,0.1,0,0.1,0.1,0.2c0.3,0.3,0.6,0.3,1,0.2c0.1,0,0.2,0,0.2-0.1c0.1-0.1,0.4-0.1,0.4-0.3
	s-0.3-0.1-0.5-0.1S87.3,42.4,87.1,42.4z M74.5,40v-0.1c-0.6-0.2-1.2-0.3-1.9-0.2c-0.2,0-0.4,0-0.4,0.2s0.2,0.2,0.3,0.2H74.5z
	 M70.7,39.5c-0.1,0-0.1,0-0.2,0c-0.1,0-0.3,0-0.3,0.2s0.2,0.2,0.3,0.2c0.4,0,0.7,0,1.1,0c0.1,0,0.2,0,0.3-0.1c0,0,0,0,0-0.1
	c0-0.1-0.1-0.2-0.2-0.2C71.4,39.6,71.1,39.6,70.7,39.5L70.7,39.5z M99.9,44.9c-0.5,0.3-0.1,0.7-0.2,1c0,0,0.1,0.1,0.1,0.1
	s0.1-0.1,0.1-0.2C100,45.5,100,45.2,99.9,44.9L99.9,44.9z M99.6,46.3c-0.1-0.1-0.1-0.2-0.2-0.3c-0.1-0.2-0.1-0.3-0.3-0.2
	s-0.1,0.3,0,0.4S99.4,46.5,99.6,46.3L99.6,46.3z M105,42.7c0-0.2,0.1-0.3-0.1-0.4s-0.3,0.2-0.3,0.4s0,0.3,0.2,0.4S105,42.8,105,42.7
	L105,42.7z M104.3,42.4c-0.2-0.2-0.4,0.1-0.5-0.2c0-0.1-0.1-0.1-0.2,0c0,0,0,0,0,0c-0.1,0.1-0.1,0.2,0,0.2
	C103.9,43,104,42.5,104.3,42.4L104.3,42.4z M98.1,47.6C98,47.4,98,47.1,97.8,47c-0.1,0-0.2,0.1-0.1,0.2s0.2,0.5,0.4,0.5
	C98.1,47.8,98.2,47.7,98.1,47.6L98.1,47.6z M103.5,45.7c-0.2,0.1-0.1,0.3-0.2,0.4c0,0.1,0.1,0.2,0.1,0.2c0,0,0,0,0.1,0
	c0.2,0,0.2-0.2,0.2-0.4S103.7,45.7,103.5,45.7L103.5,45.7z M109.5,39.3c0.2,0.2,0.5,0.2,0.8,0.2C110.1,39.3,109.8,39.3,109.5,39.3
	L109.5,39.3z M103.5,50.1c0.2-0.2,0.4-0.2,0.3-0.5c0-0.1-0.1-0.1-0.2-0.1c0,0,0,0,0,0C103.5,49.7,103.5,49.9,103.5,50.1L103.5,50.1z
	 M103.9,39.1c0,0.1-0.1,0.1-0.1,0.1s-0.1,0.2,0.1,0.2S103.9,39.3,103.9,39.1L103.9,39.1z M109.1,39.4
	C109.1,39.4,109.2,39.4,109.1,39.4C109.2,39.4,109.2,39.4,109.1,39.4L109.1,39.4L109.1,39.4z M102.2,37.9L102.2,37.9
	C102.1,37.9,102.1,37.9,102.2,37.9C102.1,38,102.2,38,102.2,37.9L102.2,37.9z"/>
<path fill="#010101" d="M0,5c0-0.2,0.2-0.2,0.3-0.3l5.3-3.9c0.2-0.2,0.5-0.2,0.8-0.1c3.8,2,7.7,4,11.5,5.9c0.2,0.1,0.4,0.3,0.4,0.6
	c0,0.1,0,0.3,0,0.4c0,6.4,0,12.8,0,19.1c0,0.3,0.1,0.6,0.4,0.7c0.6,0.3,1.1,0.6,1.7,0.9l-3.7,2.5c-0.1,0.1-0.3,0.1-0.5,0L12.6,29
	c-0.3-0.1-0.2-0.2,0-0.4c0.5-0.3,1-0.7,1.5-1c0.2-0.1,0.3-0.3,0.3-0.5c0-2.8,0-5.6,0-8.5c0-0.3-0.1-0.4-0.4-0.4c-1.4,0-2.7,0-4,0
	c-0.4,0-0.4,0.2-0.4,0.5c0,3.9,0,7.8,0,11.7c0,1.1,0,2.3,0,3.4c0,0.8-0.3,1.5-0.9,2c-0.8,0.7-1.8,1.2-2.9,1.5
	c-0.1,0.1-0.3,0.1-0.4,0l-4.8-2.7c0,0,0,0-0.1-0.1l1.4,0.1c1,0.1,2-0.1,2.8-0.6c0.6-0.3,0.9-0.9,0.9-1.5c0-9.1,0-18.1,0-27.2
	C5.6,5,5.4,4.7,5.1,4.7C3.7,4.2,2.2,4.2,0.9,4.8C0.6,4.9,0.4,5,0.1,5.1C0.1,5,0,5,0,5z M9.6,6.8c0,0,0,0.1-0.1,0.2
	c0,2.9,0,5.8,0,8.8C9.5,16,9.6,16,9.9,16c1.4,0,2.8,0,4.1,0c0.4,0,0.4-0.1,0.4-0.4c0-1.6,0-3.2,0-4.8c0-0.4,0-0.7,0-1.1
	c0.1-0.3,0-0.4-0.2-0.5c-1-0.6-2.1-1.1-3.2-1.7C10.5,7.3,10,7.1,9.6,6.8z M15.6,24.4c0.1,0.1,0.1,0.3,0,0.4c-0.3,0.4,0,0.7,0.3,0.8
	s0.4-0.2,0.5-0.4c0.1-0.4,0.4-0.6,0.8-0.5c0.1,0,0.1,0,0.2,0.1c0.1,0.1,0.2,0.3,0.3,0.2s0.3-0.2,0.3-0.4c0-0.3,0-0.5,0-0.8
	c0-0.2-0.4-0.3-0.1-0.6s0.2-0.3,0.1-0.4s-0.3-0.1-0.4-0.1c-0.3,0-0.5,0.1-0.7,0.3c-0.3,0.4-0.8,0.7-1.3,0.7
	c-0.2,0.1-0.5,0.1-0.7,0.3c-0.1,0-0.2,0.2-0.1,0.3c0,0,0,0,0,0c0,0.2,0.7,0.1,0.3,0.5c0,0,0.2,0.1,0.2,0S15.5,24.5,15.6,24.4z
	 M18.6,27.9c-0.2-0.3-0.7-0.3-0.7-0.8s-0.2-0.4-0.4-0.4c-0.9,0.1-1.7,0-2.6-0.1c-0.1,0-0.3,0-0.3,0.2c0,0.6,0,0.8,0.7,0.8
	c0.5-0.1,1,0,1.5,0.1C17.4,27.9,18,27.9,18.6,27.9z"/>
<path fill="#030202" d="M34,31.1c0.2,0.2,0,0.3-0.1,0.4c-1.8,1.4-3.6,2.8-5.5,4.2c-0.2,0.2-0.4,0.1-0.7,0c-1.7-0.8-3.5-1.5-5.2-2.1
	c-0.8-0.3-1.6-0.5-2.4-0.4c0.1-0.3,0.4-0.5,0.7-0.5c1-0.3,1.2-0.9,1.2-1.9c-0.1-4,0-8,0-12c0-0.4-0.1-0.6-0.5-0.5s-1.1,0-1.6,0
	c-0.3,0-0.5-0.2-0.3-0.4c0.3-0.5,0.6-0.9,1-1.3c0.2-0.3,0.6-0.4,1-0.4c0.4,0.1,0.4-0.1,0.4-0.4c0-0.9,0-1.9,0-2.8
	c0-0.6,0.2-1.2,0.7-1.6c0.9-0.7,1.9-1.3,2.9-1.8c0.4-0.2,0.3,0.2,0.3,0.4c0,1.9,0,3.8,0,5.7c0,0.1,0,0.2,0,0.3s0.1,0.3,0.3,0.3
	c2,0,4,0,6,0c0.4,0,0.3-0.2,0.3-0.4c0-1.8,0-3.6,0-5.3c0-0.7,0.3-1.4,0.9-1.8c0.8-0.6,1.7-1.1,2.6-1.6c0.4-0.2,0.5,0,0.5,0.3
	c0,2.7,0,5.4,0,8.2c0,0.5,0.2,0.7,0.7,0.6c1,0,2,0,3,0c0.1,0,0.3,0,0.4,0.1c0.1,0.1,0,0.3-0.1,0.4l-0.1,0.1
	c-1.1,1.6-1.1,1.6-3.2,1.6c-0.7,0-0.7,0-0.7,0.7c0,2.6,0,5.3,0,7.9c0,0.4,0.2,0.7,0.5,0.8c0.5,0.2,1,0.6,1.6,0.9l-3.8,2.5
	c-0.1,0.1-0.3,0.1-0.5,0c-1.2-0.6-2.4-1.2-3.6-1.8c-0.3-0.2-0.3-0.3,0-0.4c0.5-0.3,1-0.7,1.5-1c0.2-0.1,0.3-0.3,0.3-0.6
	c0-2.9,0-5.7,0-8.6c0-0.3-0.1-0.4-0.4-0.4c-1.9,0-3.8,0-5.7,0c-0.3,0-0.4,0.1-0.4,0.4v11.6c0,0.2,0.1,0.3,0.2,0.4
	C28.6,32.1,31.5,32.4,34,31.1L34,31.1L34,31.1z M24.2,28.7C24.2,28.7,24.2,28.6,24.2,28.7L24.2,28.7c0,0.5-0.3,0.4-0.6,0.5
	s-0.3,0-0.4,0.2s0.2,0.2,0.3,0.2c0.7,0.3,1.5,0.1,2-0.5c0.2-0.3,0.2-0.7,0-1.1c-0.1-0.2-0.5-0.1-0.7-0.1c-0.5,0.1-0.2,0.5-0.2,0.8
	l0,0L24.2,28.7z M25.7,23c0-0.2,0.1-0.7-0.4-0.5c-0.8,0.2-1.7,0.3-2.5,0.4c-0.5,0.1-0.3,0.4-0.3,0.6s0.3,0.2,0.4,0.2
	c0.6-0.1,1.3-0.1,1.9-0.1C25.4,23.6,25.7,23.5,25.7,23z M33.7,22.5c0.5-0.2,1-0.3,1.5-0.1c0.4,0.1,0.6-0.2,0.9-0.3
	c0.1,0,0.1-0.5-0.2-0.4c-0.5,0.2-0.9-0.2-1.3-0.1c-0.1,0-0.3,0-0.3,0.1c-0.2,0.3-0.4,0.3-0.7,0.1s-0.4-0.2-0.6,0
	c-0.1,0.2-0.1,0.4,0,0.6c0.3,0.2,0,0.4,0,0.6h1.7c-0.2-0.1-0.5-0.1-0.7-0.1C33.8,22.8,34,22.5,33.7,22.5L33.7,22.5z M22.5,22.7
	c0.5-0.3,1.3,0,1.7-0.7c0,0,0.1,0,0.2,0c0.6,0.1,0.9-0.4,1.2-0.6c0.1-0.1,0.1-0.3,0-0.4c-0.1-0.2-0.2,0-0.3,0
	c-0.7,0.5-1.5,0.7-2.3,0.7C22.5,21.9,22.4,22.1,22.5,22.7z M35.5,29.2c-0.9-0.2-1.6-0.5-2.3,0.1c0.6,0.5,1.3,0.1,2,0.2
	c-0.2,0.2-0.2,0.3,0,0.5s0.3,0,0.4-0.1c0.4-0.2,0.7-0.4,0.4-0.8c0-0.1,0-0.2,0-0.2c0.1-0.3-0.1-0.2-0.2-0.2
	C35.3,28.6,35.2,28.8,35.5,29.2L35.5,29.2z M24.1,28.5c0-0.2-0.2-0.4,0-0.5c0.1-0.1,0.1-0.2,0-0.3c0,0,0,0,0,0
	c-0.2-0.1-0.9,0.1-0.9,0.3c0,0.3-0.1,0.5-0.3,0.6c-0.1,0.1-0.2,0.2-0.1,0.4c0,0,0,0.1,0.1,0.1c0.1,0.1,0.3,0,0.4-0.1c0,0,0,0,0-0.1
	C23.3,28.3,23.7,28.4,24.1,28.5L24.1,28.5z M24.2,25.9c-0.5,0.1-0.9,0.1-1.4,0.2c-0.1,0-0.4,0-0.4,0.2s0.3,0.1,0.4,0.1
	c0.1,0,0.3,0,0.4,0C23.9,26.6,24.1,26.3,24.2,25.9L24.2,25.9z M22.7,27.4c0.2-0.2,0.5-0.2,0.8-0.3c0.1,0,0.4,0,0.3-0.2
	s-0.2-0.4-0.4-0.2c-0.2,0.1-0.4,0.2-0.7,0.2c-0.2,0-0.2,0.2-0.2,0.4S22.5,27.4,22.7,27.4L22.7,27.4z M34.5,26.5c0,0.1,0,0.3,0,0.4
	c0,0.2,0.2,0.2,0.4,0.3s0.2,0,0.2-0.1s0-0.3-0.2-0.3C34.7,26.7,34.6,26.6,34.5,26.5z M35.6,26.3c-0.1,0-0.3,0-0.2,0.2
	s0.3,0.3,0.5,0.3s0.2-0.1,0.2-0.2C35.9,26.3,35.7,26.3,35.6,26.3L35.6,26.3z M25.8,26.5c-0.3-0.3-0.5-0.3-0.7,0.1
	C25.3,26.8,25.5,26.3,25.8,26.5L25.8,26.5z M31.8,29.1c0.1-0.1,0-0.2,0-0.3c0-0.1,0-0.2,0-0.2c0,0,0,0-0.1,0c-0.1,0-0.2,0.1-0.2,0.2
	C31.4,29.1,31.6,29.1,31.8,29.1L31.8,29.1z"/>
<path fill="#020101" d="M112,10.2c-0.1-0.2,0-0.4,0.1-0.6l2.8-6.1c0.1-0.2,0.3-0.4,0.6-0.4c3-0.1,5.9-0.2,8.9-0.1
	c1.9,0,3.8-0.1,5.6-0.3c1.4-0.2,2.6-0.9,3.5-2l0.6-0.8c0.1,0.2,0,0.3,0,0.5c-1,2-1.9,4.1-2.9,6.1c-0.1,0.3-0.4,0.4-0.7,0.4
	c-1.9,0-3.9,0.1-5.8,0.2c-0.3,0-0.4,0.1-0.4,0.4c0,7.9,0,15.8,0,23.6c0,0.2,0,0.4,0.2,0.5c1.5,1.1,3.5,1.6,5.3,1.3
	c0.4-0.1,0.8-0.2,1.1-0.3l0.1,0.1l-1.9,1.6c-0.9,0.7-1.8,1.4-2.6,2.2c-0.2,0.2-0.5,0.3-0.8,0.1c-2-0.9-4-1.7-6.1-2.3
	c-0.4-0.1-0.8,0-1.3-0.2c0.6-0.3,1.1-0.6,1.7-0.9c0.2-0.1,0.4-0.3,0.4-0.6c0-8.3,0-16.7,0-25c0-0.3-0.1-0.5-0.4-0.5
	c-1.2,0.1-2.5,0-3.7,0.1c-1.3,0.1-2.6,0.8-3.4,1.8C112.5,9.6,112.2,9.9,112,10.2z M122.4,5.7L122.4,5.7L122.4,5.7
	c0-0.4-0.4-0.3-0.5-0.5s-0.2-0.2-0.3-0.1s-0.2,0.2-0.1,0.4s0.1,0.3,0.3,0.2S122.2,5.7,122.4,5.7z M123,12.1l0.7,0.1
	c0.1,0,0.2,0,0.3-0.1c0,0,0-0.1,0-0.1c0-0.4,0-0.8,0-1.2c0-0.3-0.4-0.2-0.6-0.2s-0.2,0.1-0.1,0.3s-0.1,0.3-0.3,0.3
	c-0.6,0.1-1.2,0.1-1.9,0.2c-0.1,0-0.2,0-0.2,0.2s0.1,0.2,0.2,0.2c0.7,0,1.4,0.4,2-0.2c0.2-0.2,0.4-0.1,0.6,0c0.1,0,0.1,0.1,0.1,0.2
	c0,0,0,0,0,0c-0.1,0.2-0.3,0.2-0.4,0.2C123.1,12,123.1,12,123,12.1z M125.3,5.1c-0.9-0.2-1.8-0.2-2.7,0l0.2,0.2c0,0,0.1,0,0.1,0.1
	c-0.4,0.3-0.3,0.3-0.2,0.5s0.3,0,0.5,0c0.2-0.1,0.4-0.1,0.6,0c0.2,0.1,0.6,0.1,0.7,0S125,5.4,125.3,5.1L125.3,5.1z M122.1,17.9
	c-0.3-0.3,0-0.6-0.3-0.8h0.2c0.1,0,0.4,0.1,0.4-0.2c0-0.2-0.1-0.4-0.3-0.4c0,0,0,0,0,0c-0.4-0.1-0.7-0.1-1.1,0l0.4,0.6
	c-0.8-0.4-0.7,0-0.7,0.4c0,0.2,0,0.3,0,0.5s-0.1,0.3,0.1,0.3s0.3,0,0.3-0.2c0-0.5,0.2-0.3,0.5-0.3C121.8,18,121.9,18,122.1,17.9
	L122.1,17.9z M120.8,21.1c0,0,0,0.1,0,0.1c0,0.4,0,0.8,0,1.2c0,0.2,0,0.3,0.2,0.4s0.4-0.1,0.4-0.3C121.7,21.9,121.5,21.4,120.8,21.1
	L120.8,21.1z M122.7,17.1c0.1,0.5,0.5,0.6,0.9,0.6c0.1,0,0.3,0.1,0.3-0.1s0-0.3-0.2-0.3C123.4,17.1,123.1,17,122.7,17.1L122.7,17.1z
	 M123,16.6c0.2,0,0.3-0.1,0.3-0.3s0-0.4-0.3-0.4s-0.4,0-0.4,0.2S122.8,16.6,123,16.6L123,16.6z M121,14.6c0.5-0.1,1,0.2,1.5,0.2
	C121.8,14.3,121.8,14.3,121,14.6L121,14.6z M128.2,5.9c0.4,0.2,0.9,0.1,1.2-0.3C129,5.7,128.5,5.4,128.2,5.9L128.2,5.9z M122,10.8
	c-0.3-0.3-0.6,0-0.9-0.1c-0.1,0-0.3-0.1-0.3,0.1c0,0.1,0.1,0.2,0.3,0.2c0,0,0,0,0,0C121.4,10.9,121.7,10.9,122,10.8L122,10.8z
	 M131.6,4.6V4.5l-0.8-0.2c-0.1,0-0.2,0-0.2,0.1c0,0,0,0,0,0c0,0.1,0.1,0.1,0.2,0.1L131.6,4.6z M126.9,6.1c0.4,0.1,0.8,0.1,1.1-0.1
	C127.7,5.9,127.3,5.9,126.9,6.1L126.9,6.1z M122.5,21.7c0-0.1-0.1-0.2-0.2-0.2c0,0-0.1,0-0.1,0c-0.1,0-0.3,0.1-0.3,0.2
	s0.1,0.2,0.3,0.2S122.5,21.9,122.5,21.7L122.5,21.7z M123.6,14.6c-0.4,0-0.7-0.4-1.2-0.2C122.9,14.4,123.2,14.8,123.6,14.6
	L123.6,14.6z M126.1,5.1c-0.2-0.1-0.4-0.3-0.6-0.2s-0.1,0.2,0,0.2c0.1,0.2,0.3,0.2,0.5,0.1C126.1,5.2,126.1,5.1,126.1,5.1L126.1,5.1
	z M131,5.1c-0.1,0-0.2,0-0.2,0.2s0.1,0.3,0.3,0.2s0.3-0.1,0.3-0.2S131.2,5.1,131,5.1L131,5.1z M127.1,5.2c-0.1,0-0.2,0-0.2,0.1
	s0.2,0.3,0.4,0.3s0.2-0.1,0.2-0.2S127.3,5.1,127.1,5.2L127.1,5.2z M121.6,23.3c-0.1,0-0.3,0-0.2,0.2s0.1,0.2,0.2,0.2
	s0.2-0.1,0.2-0.2S121.7,23.3,121.6,23.3z"/>
<path fill="#020101" d="M74.2,13.3c1.2-0.8,2.3-1.6,3.3-2.4c0.3-0.2,0.4-0.2,0.7,0c1.7,1.2,3.4,2.2,5.2,3.2l0.3,0.2
	c0.2,0.1,0.2,0.2,0,0.4c-1.1,0.7-2.2,1.5-3.3,2.1s-2.1,1.2-3.1,1.8c0.1,0.2,0.2,0.1,0.4,0.1c1.2,0,2.3,0,3.5,0
	c0.4,0,0.5,0.1,0.5,0.5c0,2.1,0,4.1,0,6.2c0,1.8,0,3.6,0,5.3c0,0.5,0.3,1.1,0.8,1.2c0.9,0.4,2,0.5,3,0.3c0,0.2-0.1,0.2-0.2,0.3
	c-1.1,0.8-2.2,1.7-3.2,2.5c-0.2,0.2-0.4,0.2-0.6,0.1c-0.9-0.2-1.7-0.6-2.5-1.2c-0.8-0.5-1.2-1.4-1.2-2.3c0-3.2,0-6.4,0-9.6
	c0-0.3-0.1-0.5-0.4-0.4c-0.9,0-1.8,0-2.7,0c-0.4,0-0.5,0.1-0.5,0.5c0,1.8,0.1,3.7,0,5.5c-0.1,0.6,0.3,1.2,0.8,1.3
	c1,0.4,0.9,0.5,0,1.1s-1.8,1.2-2.8,1.8C72,32,71.8,32,71.6,31.9c-1.2-0.6-2.3-1.2-3.5-1.7c-0.3-0.2-0.3-0.2,0-0.4
	c0.6-0.4,1.2-0.8,1.8-1.2c0.3-0.2,0.5-0.5,0.4-0.8c0-6.5,0-13,0-19.5c0-0.9,0.4-1.7,1.2-2.2c0.7-0.5,1.5-0.9,2.3-1.3
	c0.4-0.2,0.5-0.1,0.5,0.3C74.2,7.7,74.2,10.5,74.2,13.3z M73.5,20.5c-0.1-0.1-0.2-0.1-0.2-0.2c-0.1-0.1-0.2-0.2-0.1-0.3
	s0.2-0.1,0.4-0.1s0.2,0.2,0.1,0.3s0.1,0.2,0.2,0.3c0.1,0.1,0.2,0.3,0.2,0.4c0,0.2,0,0.5,0.3,0.5s0.6,0.2,0.6-0.4
	c0-0.1,0.1-0.1,0.2-0.1c0,0,0,0,0,0c0.6,0,1.1-0.1,1.7-0.2c1,0.1,2,0.2,3,0.2c0.3-0.1,0.6,0,0.7,0.3c-0.4,0.2-1-0.2-1.5,0.3
	c0.5,0,0.9,0,1.3,0c1.2-0.1,1.2-0.1,1.2-1.3c0-0.1,0-0.3,0-0.4c0.1-0.4-0.1-0.6-0.5-0.5c-1.6,0-3.1,0-4.7,0c-0.4,0-0.2-0.2-0.2-0.3
	c-0.6,0.1-1.1,0.3-1.6,0.5c-0.2,0.1-0.4,0.5-0.5-0.1c0-0.2-0.3-0.1-0.4-0.1c-0.5,0.2-1.1,0.2-1.7,0c-0.4-0.1-0.7,0.3-1.1,0.6
	c-0.1,0.1-0.1,0.6,0,0.8s0.3,0.1,0.4,0.1s0.1,0,0.1,0C72,21.3,72.9,21.2,73.5,20.5C73.5,20.5,73.5,20.5,73.5,20.5z M78.9,16.3
	l-3.8-1.8c-0.4-0.1-0.9,0.2-1,0.6c0,0,0,0,0,0c0,1.3,0,2.5,0,3.9L78.9,16.3z M78.2,24.2c0,0.1,0,0.2,0,0.3c0,0.1,0.1,0.3,0.2,0.3
	c0.2,0.1,0.2-0.2,0.2-0.2c0.3-0.1,0.6-0.2,0.5-0.6c0,0,0.1,0,0.1,0c0.3,0.3,0.4-0.1,0.6-0.2c0.6-0.2,0.8-0.2,1.2,0.3
	c0.1,0.1,0.2,0.2,0.3,0.2s0.1-0.2,0.1-0.3c-0.1-0.4-0.2-0.8-0.5-1.1c-0.1-0.1-0.2-0.2-0.3,0c-0.3,0.4-0.9,0.4-1.3,0.1
	c0,0,0,0-0.1-0.1c-0.2-0.5-0.4-0.2-0.6,0s-0.1,0.4-0.1,0.6s0.1,0.3,0,0.3C78,23.6,78.2,23.9,78.2,24.2L78.2,24.2z M70.7,24.3
	L70.7,24.3c0,0.3,0,0.5,0,0.8s0.2,0.3,0.4,0.3s0.3-0.2,0.2-0.4c-0.1-0.2-0.2-0.3-0.3-0.4c-0.1-0.1-0.2-0.2,0-0.3s0.1-0.2,0.3-0.1
	s0.6-0.5,0.5-0.6s-0.2-0.6-0.6-0.5s-0.6,0.2-0.5,0.6C70.7,23.9,70.7,24.1,70.7,24.3z M79.5,27c0.3-0.2,0.7-0.1,0.9-0.4
	s0.2-0.2,0.2-0.4s-0.3-0.1-0.4-0.1s-0.3,0-0.4-0.2s-0.1-0.3-0.3-0.2s-0.3,0.4-0.2,0.5C79.7,26.4,79.5,26.7,79.5,27z M79.2,24.4
	c0.3,0.3,0.3,0.7,0.7,0.9c0.2,0.1,0.4,0.1,0.4-0.2s0.2-0.5-0.1-0.6C80,24.3,79.6,24.3,79.2,24.4z M73.6,24.1c-0.3,0-0.7,0.1-1,0.2
	c-0.2,0.1-0.4,0.1-0.3,0.4c0.1,0.2,0.3,0.3,0.5,0.2c0.3-0.1,0.5-0.2,0.8-0.2c0.1,0,0.2-0.1,0.2-0.3c0,0,0,0,0-0.1
	C73.9,24.1,73.7,24.1,73.6,24.1z M72.8,23c-0.6-0.5-0.6-0.5-0.9,0.2C72.3,23.2,72.6,23.2,72.8,23z M81.3,26.3
	c-0.1-0.2-0.2-0.3-0.4-0.3c-0.3,0-0.2,0.2-0.2,0.4s0,0.2,0.2,0.2S81.3,26.5,81.3,26.3z"/>
<path fill="#030202" d="M183,27.5l-2.5,1.8c-0.9,0.7-1.9,1.3-2.8,2c-0.2,0.2-0.5,0.2-0.8,0c-1.2-0.7-2.5-1.4-3.8-1.9
	c-0.3-0.2-0.7-0.2-1.1-0.2c-0.1,0-0.3,0-0.3-0.1s0.1-0.2,0.2-0.2c0.4-0.3,0.9-0.6,1.3-0.9c0.2-0.1,0.4-0.4,0.3-0.6
	c0-4.2,0-8.4,0-12.6c0-0.2,0-0.4-0.3-0.5c-1.3-0.4-2.6-0.8-4-1.2v0.5c0,4.3,0,8.6,0,12.9c0,0.3,0.1,0.6,0.4,0.7
	c0.5,0.2,0.9,0.5,1.4,0.7c0.2,0.1,0.4,0.2,0,0.4c-1.1,0.7-2.3,1.5-3.4,2.2c-0.1,0.1-0.3,0.1-0.4,0.1l-3.8-1.9c0,0-0.1-0.1-0.1-0.2
	c0.6-0.4,1.1-0.8,1.7-1.2c0.2-0.1,0.4-0.4,0.3-0.7c0-4.2,0-8.3,0-12.5c0-0.2-0.1-0.3-0.2-0.4c-0.7-0.3-1.4-0.7-2.1-1
	c-0.3-0.2-0.3-0.2,0-0.5c1.1-0.8,2.3-1.5,3.4-2.3c0.2-0.1,0.4-0.1,0.6,0c0.9,0.5,1.8,1,2.6,1.4c0.2,0.2,0.5,0.1,0.7-0.1
	c0.7-0.6,1.5-1.2,2.3-1.8c0.1-0.1,0.2-0.2,0.4-0.1c1.9,0.9,3.8,1.6,5.8,2.3c0.6,0.2,0.6,0.2,0.2,0.7s-0.9,1-1.4,1.5
	c-0.1,0.1-0.2,0.3-0.2,0.6c0,4.2,0,8.3,0,12.5c0,0.2,0.1,0.5,0.4,0.5c1.2,0.5,2.6,0.5,3.9,0.1C182.2,27.5,182.6,27.5,183,27.5z
	 M174.1,10.7c-0.4,0-0.9,0-1.3-0.1c-0.1,0-0.3-0.1-0.4,0.1s0,0.3,0.1,0.4s0.4,0.4,0.7,0.1s0.4-0.2,0.5,0.1c0.1,0.2,0.4,0.4,0.6,0.4
	c0.1,0,0.2,0,0.2-0.1c0.1-0.1,0-0.2-0.1-0.2c-0.1-0.1-0.1-0.1-0.2-0.2c0.7,0.2,0-0.4,0.3-0.5c0.1,0,0-0.1-0.1-0.1l-1.2-0.5
	c-0.2-0.1-0.2,0-0.3,0.2C173.4,10.4,173.7,10.5,174.1,10.7L174.1,10.7z M169.2,17.7c0-0.8,0-1.5,0-2.2s-0.3-0.8-0.9-0.9
	c-0.1,0-0.1,0-0.2,0c-0.6,0-1.2,0.1-1.8,0.1c-0.2,0-0.4,0.2-0.4,0.4c0,0,0,0,0,0.1c0,0.5,0,1,0,1.4c0,0.4,0.3,0.8,0.6,0.9
	c0.5,0.2,1,0.5,1.6,0.1c0.1,0,0.1,0,0.2,0C168.6,17.7,168.9,17.7,169.2,17.7L169.2,17.7z M176.9,17c0.1-0.1,0.4,0,0.4-0.2
	s-0.2-0.3-0.3-0.4c-0.2-0.1-0.4-0.2-0.6-0.2c-0.5,0.1-1,0.1-1.4,0c-0.2,0-0.4,0-0.6,0.1c-0.3,0-0.4,0.2-0.3,0.4c0,0.6,0,1.1,0,1.7
	c-0.1,0.2,0.1,0.4,0.3,0.5c0,0,0,0,0,0c0.4,0.2,0.8,0,1.3,0s1,0,1.5,0c-0.7-0.4-1.5-0.6-2.2-0.6c0.3-0.3,0.6-0.4,0.9-0.2
	c0.5,0.2,0.9-0.2,1.4,0c0,0,0.1-0.1,0.1-0.2C177.4,17.5,177.3,17.2,176.9,17C177,17,176.9,17,176.9,17L176.9,17z M174,14.3
	c0.6-0.1,0.7,0.1,0.6,0.5s0.2,0.9,0.8,0.9c0.1,0,0.3,0,0.4,0.1c0.1,0,0.3,0.1,0.3,0c0-0.1,0-0.2,0-0.3c0-0.2-0.2-0.1-0.3-0.1
	c-0.2,0.1-0.5,0.1-0.7,0c0-0.1,0.1-0.2,0.2-0.3c1.1,0.2,0.4-0.6,0.3-0.8c-0.1-0.3-0.3-0.5-0.6-0.5C174.9,14.2,174.4,14,174,14.3z
	 M168.5,19.3c0.2,0,0.4,0,0.4-0.2s0-0.2-0.1-0.2c-0.5-0.1-1-0.2-1.5-0.3c-0.2,0-0.3,0.1-0.3,0.3c0,0.2,0.2,0.2,0.3,0.2L168.5,19.3z
	 M176.5,15.6c0.4,0.2,0.6,0.4,0.8,0.1s-0.1-0.5-0.5-0.7C177.1,15.5,176.8,15.6,176.5,15.6z M177.4,11.8c-0.3-0.2-0.6-0.3-0.9-0.3
	c-0.1,0-0.2,0.1-0.2,0.2c0,0.1,0.1,0.1,0.2,0.2C176.8,11.9,177.1,11.9,177.4,11.8L177.4,11.8z M167.3,13.2c0.2,0.1,0.2-0.1,0.2-0.2
	c0-0.1-0.1-0.3-0.3-0.3c0,0,0,0,0,0c-0.1,0-0.3,0.1-0.3,0.2S167.1,13.1,167.3,13.2L167.3,13.2z M175.6,12.3c0.1,0.2,0.2,0.4,0.5,0.4
	c0.1,0,0.1-0.1,0.1-0.2C176,12.3,175.8,12.2,175.6,12.3C175.6,12.3,175.6,12.3,175.6,12.3L175.6,12.3z M166.9,18.6
	c0-0.1,0-0.2-0.1-0.2c-0.1,0-0.2,0.1-0.3,0.3c0,0.1,0.1,0.2,0.2,0.2C166.9,18.9,166.9,18.7,166.9,18.6L166.9,18.6z"/>
<path fill="#030202" d="M39,28.5c0.5-0.2,0.9-0.5,1.4-0.7c0.3-0.1,0.4-0.3,0.4-0.6c0-1.5,0-3.1,0-4.6c0-0.6,0.2-1.2,0.8-1.5
	c1.6-1.2,3.2-2.2,4.9-3.3c0.2-0.1,0.4-0.1,0.5,0l2.5,1c0.3,0.1,0.4,0.1,0.4-0.2c0-0.9,0-1.8,0-2.7c0-0.2,0-0.3-0.2-0.4
	c-2-0.7-3.9-1.5-6.1-1.5c-0.6,0-1.3,0.1-1.9,0.2c0-0.2,0.1-0.2,0.2-0.3c1.5-1,3-2.1,4.5-3.1c0.2-0.2,0.5-0.2,0.7-0.1
	c1.7,0.7,3.5,1.2,5.3,1.5c0.3,0,0.6,0.1,0.9,0.1c0.4,0,0.5,0.2,0.5,0.5c0,2.6,0,5.3,0,7.9c0,1.8,0,3.7,0,5.5c0,0.3,0.1,0.5,0.3,0.6
	c0.6,0.3,1.2,0.7,1.7,1c0.2,0.1,0.3,0.2,0.1,0.5c-0.9,0.8-1.7,1.5-2.6,2.2c-0.2,0.2-0.5,0.2-0.8,0.1c-0.8-0.4-1.6-0.8-2.5-1.3
	c-0.2-0.1-0.4-0.1-0.6,0c-0.8,0.6-1.5,1.1-2.3,1.7c-0.2,0.2-0.6,0.3-0.9,0.1c-1.7-0.8-3.5-1.6-5.3-2.2c-0.6-0.2-1.2-0.3-1.8-0.2
	L39,28.5z M41.9,25.5c0.1,0,0.2,0,0.2,0c0.5,0.1,0.6-0.2,0.8-0.5s0.1-0.4-0.2-0.4s-0.4-0.1-0.6-0.1s-0.3,0-0.2,0.1
	C42,25,41.7,25.2,41.9,25.5c-0.2,0-0.4,0-0.3,0.3c0,0.1,0.2,0.2,0.3,0.2c0,0,0,0,0,0C42.1,25.9,41.9,25.7,41.9,25.5z M44.6,23.6
	L44.6,23.6c0,0.7-0.2,1.6,0.1,2.2s1.2,0.8,1.8,1.1c0.2,0.1,0.5,0.1,0.6-0.1c0.6-0.6,1.2-1.1,1.9-1.6c0.9-0.6,0.6-1.4,0.6-2.1
	c0-0.1-0.1-0.2-0.2-0.2c-1.5-0.6-3-1.1-4.5-1.4c-0.3-0.1-0.4,0-0.4,0.4C44.6,22.4,44.6,23,44.6,23.6z M52.3,19.5L52,19.8
	c-0.3,0.4-0.5,0.7-1.1,0.6c-0.2-0.1-0.4,0.1-0.6,0.3c-0.3,0.5-0.9,0.7-1.5,0.7c-0.8-0.1-1.7-0.2-2.5-0.5c-0.4-0.1-0.9-0.1-1.3,0.1
	c0.1,0.2,0.2,0.3,0.4,0.3c1.4,0.3,2.9,0.8,4.2,1.3c0.3,0.1,0.4,0.2,0.4,0.5s0,0.4,0.2,0.4s0.6,0,0.6-0.3c0-0.5,0.2-0.3,0.4-0.2
	s0.4,0.1,0.5,0.1c0-0.2-0.4-0.2-0.1-0.5c0.1-0.2,0.3-0.3,0.5-0.2c0.3,0,0.5,0,0.8,0c0.2,0,0.2-0.1,0.2-0.2v-2.5
	C52.5,20,52.5,20,52.3,19.5z M41.1,23.6c0.2-0.2,0-0.6,0.4-0.6c0.5,0,1,0,1.4-0.1c0.3,0,0.7,0,1,0.1c0.2,0,0.3,0,0.3-0.2
	c0-0.4,0-0.8,0-1.1c0-0.2-0.1-0.2-0.3-0.2c-0.5-0.1-1-0.2-1.5-0.2c-0.8,0-1.4,0.5-1.4,1.1C41.1,22.7,41.1,23.1,41.1,23.6z
	 M51.1,24.3l0.3,0.1c0.6,0.1,0.8,0.4,0.6,0.9c-0.1,0.2,0.1,0.3,0.2,0.4c0.3,0.1,0.5,0.1,0.8,0.2c0.2,0.1,0.2-0.1,0.2-0.2
	c0-0.5,0-1,0-1.4c0-0.1-0.1-0.3-0.2-0.3c-0.1,0-0.2,0-0.2,0.1c-0.2,0.3-0.6,0.4-0.9,0.2c0,0-0.1,0-0.1-0.1
	C51.5,23.7,51.3,23.9,51.1,24.3L51.1,24.3z M47.9,28.6c-0.2-0.2-0.3-0.4-0.7-0.3s-0.8,0.3-1-0.3c0-0.1-0.2-0.1-0.2,0
	c0,0.4,0,0.7,0.1,1.1c0,0,0.1,0,0.1,0c0.2-0.1,0.5-0.1,0.8-0.3s0.1-0.2,0.2-0.1C47.5,29,47.7,28.7,47.9,28.6z M49.4,27.6
	c0.2,0.1,0.5,0.2,0.7,0.2c0.4,0.1,0.5,0,0.4-0.4c-0.1-0.3-0.3-0.5-0.6-0.6c-0.2-0.1-0.3,0-0.2,0.2C49.9,27.3,49.8,27.5,49.4,27.6
	L49.4,27.6z M49.4,25.5c-0.1,0.1-0.3,0.2-0.3,0.3c0.1,0.2,0.2,0.4,0.4,0.6c0.1,0.1,0.2,0.1,0.3,0.1l0,0c0.1-0.1,0.1-0.3,0-0.5
	C49.6,25.9,49.6,25.7,49.4,25.5L49.4,25.5z M43.3,26.1c-0.4,0.1-0.7,0.2-1,0.4C42.7,26.9,42.9,26.8,43.3,26.1L43.3,26.1z M49.5,28.7
	c0.1,0,0.2,0,0.2-0.2s-0.1-0.3-0.3-0.3s-0.2,0-0.2,0.2S49.4,28.7,49.5,28.7z M41.8,27.2c-0.1,0-0.3,0.1-0.3,0.3
	c0,0.2,0.2,0.2,0.3,0.2s0.2-0.1,0.2-0.2S42,27.2,41.8,27.2L41.8,27.2z M46.1,27.1L46.1,27.1c0,0.1,0,0.2,0.1,0.3
	c0.1,0.1,0.3,0.2,0.5,0.2c0,0,0.1-0.1,0.1-0.1c-0.1-0.2-0.3-0.2-0.4-0.2C46.3,27.2,46.2,27.1,46.1,27.1L46.1,27.1z M43.6,20.9
	c0.2,0.2,0.3,0.3,0.6,0.3c0.1,0,0.1-0.2,0.1-0.2S44,20.8,43.6,20.9L43.6,20.9z"/>
<path fill="#030202" d="M149.4,14c0-0.3,0.2-0.3,0.3-0.4c1.5-1.1,3-2.2,4.5-3.2c0.2-0.2,0.5-0.2,0.7-0.1c1.6,0.8,3.3,1.4,5,1.8
	c0.2,0,0.5,0,0.7,0c0.4-0.1,0.5,0.1,0.5,0.5c0,4.4,0,8.8,0,13.3c0,0.3,0.1,0.6,0.4,0.8c0.5,0.3,1,0.6,1.5,0.9c0.4,0.2,0.5,0.3,0,0.6
	c-0.9,0.7-1.8,1.4-2.7,2.1c-0.2,0.2-0.4,0.2-0.6,0.1c-0.7-0.4-1.4-0.7-2.2-1.1c-0.2-0.2-0.5-0.2-0.8,0c-0.7,0.6-1.5,1.1-2.2,1.7
	c-0.2,0.2-0.5,0.2-0.8,0.1c-1.8-0.9-3.6-1.6-5.5-2.3c-0.5-0.2-1-0.1-1.5-0.3c0.6-0.3,1.2-0.7,1.8-1c0.3-0.1,0.4-0.3,0.4-0.6
	c0-1.7,0-3.4,0-5.2c0-0.3,0.1-0.5,0.3-0.7c1.6-0.9,3.1-2,4.6-3.1c0.2-0.2,0.5-0.2,0.8-0.1c0.8,0.2,1.5,0.5,2.3,0.7
	c0.3,0.1,0.4,0.1,0.4-0.2c0-0.9,0-1.8,0-2.7c0-0.2-0.1-0.4-0.3-0.4c-1.3-0.5-2.6-0.9-3.9-1.3c-1-0.2-2-0.2-3-0.1L149.4,14z
	 M160.9,18.2C160.9,18.1,160.9,18.1,160.9,18.2c-0.1-0.3,0.2-0.7-0.2-0.7l-2.6-0.2c-0.1,0-0.3,0-0.3,0.2s0.1,0.2,0.3,0.2l1.4,0.1
	v0.1L159,18c0.1,0.2,0.3,0.3,0,0.5c-0.1,0.1-0.1,0.2-0.1,0.3c0,0,0,0,0.1,0.1c0.1,0.1,0.3,0.2,0.4,0c0.3-0.3,0.8-0.4,1.1-0.1
	c0.2,0.1,0.3,0,0.3-0.2S160.9,18.3,160.9,18.2z M160.3,20.1c0,0-0.1,0-0.1-0.1c0-0.5-0.2-0.5-0.6-0.3c-0.1,0.1-0.4,0.2-0.5-0.2
	c0-0.1-0.1-0.2-0.2-0.2s-0.1,0.1-0.1,0.2c-0.1,0.2-0.2,0.1-0.4,0.1c-0.5-0.1-1,0-1.4,0.1c0.4,0.3,0.8,0.6,1.3,0.5
	c0.2-0.1,0.4,0,0.5,0.2c0.2,0.3,0.8,0.5,0.8,0.4c0.2-0.4,0.5-0.1,0.7-0.1s0.5,0.2,0.6-0.1S160.8,20,160.3,20.1L160.3,20.1z
	 M152.8,23.8v0.9c0,1.5,0,1.5,1.4,2.1c0.2,0.1,0.5,0.1,0.6-0.1c0.6-0.6,1.3-1.1,1.9-1.7c0.3-0.3,0.6-0.5,0.6-1c0-0.4,0-0.8,0-1.2
	c0-0.1-0.1-0.1-0.2-0.2c-1.3-0.5-2.6-1-4-1.3c-0.3-0.1-0.3,0-0.3,0.3C152.9,22.4,152.8,23.1,152.8,23.8z M159.3,12.4
	c-0.3-0.1-0.6-0.2-0.9-0.3c-0.7-0.1-1.3-0.3-1.9-0.6c-0.5-0.3-1.1-0.4-1.5-0.8c-0.1-0.1-0.3-0.1-0.4,0c-0.6,0.4-1.3,0.9-2,1.4
	c0.3,0.2,0.6,0.1,0.9,0.3c-0.5,0-0.8,0.5-1.3,0.7c0.3,0.1,0.7,0.2,0.9,0.5c0.1,0.1,0.3,0.1,0.5,0c0.2-0.1,0.5-0.1,0.7,0
	c0.8,0.3,1.6,0.6,2.3,1.1c0.7,0.6,1.7,0.7,2.5,0.3c-0.4-0.1-0.9-0.2-1.4-0.4c-0.1,0-0.5,0-0.4-0.3s0.3-0.3,0.6-0.3
	c0.7,0.2,1.5,0.3,2.3,0.3c-0.1-0.4-0.4-0.6-0.7-0.7c-0.3-0.1-0.7,0-1,0.1c-0.1,0.1-0.4,0-0.3-0.1c0.2-0.3,0-0.4,0-0.6
	c-0.1-0.2,0-0.4,0.2-0.5c0,0,0,0,0,0C158.7,12.4,159,12.4,159.3,12.4L159.3,12.4z M155,19.9c-0.2-0.1-0.5-0.1-0.7,0
	c-0.3,0.2-0.4,0.1-0.4-0.2c0-0.4-0.4-0.4-0.6-0.4c-0.5,0.1-0.9,0.3-1.2,0.6c-0.1,0.1-0.4,0.1-0.3,0.3c0.1,0.1,0.2,0.2,0.4,0.2
	c0.6-0.1,1.2,0,1.7,0.1c0.4,0.2,0.9-0.1,1-0.5C155,19.9,155,19.9,155,19.9L155,19.9z M160.7,15.8h-1.1c-0.1,0-0.1,0-0.1,0.2
	c0,0.1,0.1,0.1,0.1,0.1c0,0,0,0,0,0c0.3-0.2,0.6,0,1,0c0.1,0,0.3,0.1,0.3-0.2s0.1-0.5-0.1-0.7c-0.1,0-0.2,0-0.2,0.1
	s-0.1,0.1-0.1,0.2C160.5,15.6,160.6,15.7,160.7,15.8z M151.3,20.4c-0.5,0.1-0.4,0.6-0.8,0.7c0,0-0.1,0.2-0.1,0.3
	c0.1,0.1,0.3,0.1,0.4,0C151.1,21.2,151.3,20.8,151.3,20.4z M160.8,21.2c-0.5,0.3-0.8,0.7-1.3,0.7C160.3,22.2,160.4,22.2,160.8,21.2z
	 M151.9,22.4c0-0.2-0.2-0.2-0.4-0.3c-0.1,0-0.2,0-0.2,0.1c0,0,0,0.1,0,0.1c0,0.2,0.1,0.4,0.3,0.4S151.9,22.5,151.9,22.4z
	 M150.2,22.9c-0.3-0.1-0.4-0.3-0.6-0.2s-0.1,0.4,0,0.6L150.2,22.9z M160.2,12.5c0,0.2,0.1,0.5,0.4,0.4c0.2,0,0.2-0.1,0.2-0.2
	C160.6,12.4,160.4,12.6,160.2,12.5L160.2,12.5z M158,15.7c0.1,0.2,0.4,0.3,0.6,0.2C158.5,15.7,158.3,15.6,158,15.7L158,15.7z"/>
<path fill="#020101" d="M55.3,29.3c0.4-0.4,0.9-0.7,1.5-0.9c0.4-0.1,0.6-0.5,0.5-0.8c0-3.9,0-7.8,0-11.7c0-0.7,0.3-1.3,0.8-1.7
	c0.7-0.6,1.5-0.9,2.2-1.4c1-0.7,2-1.5,2.9-2.4c0.3-0.3,0.5-0.3,0.9,0c1.5,1,3,2,4.6,2.8c0.9,0.5,0.9,0.5,0.1,1.2s-1.5,1.2-2.2,1.9
	c-0.2,0.2-0.5,0.2-0.7,0c-1.5-0.8-3.1-1.5-4.6-2.2c-0.2,0.1-0.1,0.3-0.1,0.4c0,4,0,7.9,0,11.9c0,0.3,0.1,0.6,0.4,0.7
	c1.7,1.1,3.8,1.5,5.8,1.1h0.4c0,0,0,0,0.1,0.1c-0.1,0.2-0.3,0.3-0.5,0.4c-1.5,1.1-3,2.2-4.6,3.4c-0.2,0.2-0.5,0.2-0.8,0.1
	c-1.5-0.8-3.1-1.6-4.7-2.2C56.8,29.4,56,29.3,55.3,29.3z M60.8,21.2c0.3-0.1,0.1-0.4,0.2-0.6c0.1-0.4-0.1-0.5-0.5-0.4
	c-0.2,0.1-0.5,0.1-0.7,0.1c-0.6,0-1.3,0.1-1.9,0.3c-0.3,0.1-0.1,0.4-0.2,0.6s0.1,0.2,0.2,0.2c0.4,0,0.7,0,1.1,0c0.5,0,1,0.2,1.4,0.5
	c0.2,0.1,0.3,0.3,0.5,0.1s0-0.3-0.1-0.4S60.9,21.3,60.8,21.2L60.8,21.2z M59.6,18.4c-0.5,0.5-1.1,0.6-1.6,1
	c-0.1,0.1-0.4,0.1-0.3,0.3s0.3,0.2,0.5,0.2s0.4-0.2,0.5-0.3c0.3-0.4,0.8-0.5,1.3-0.3c0.2,0.1,0.3,0,0.2-0.2c0-0.1-0.1-0.3-0.1-0.4
	c-0.3-0.4,0-0.6,0.3-0.8c0.1-0.1,0.3-0.1,0.4-0.1c0.1,0,0.2-0.1,0.1-0.2s-0.1-0.1-0.2-0.1c-0.4,0.1-0.8,0.1-1.2,0.2
	c-0.2,0-0.4,0.1-0.4,0.4S59.4,18.2,59.6,18.4L59.6,18.4z M58.3,26.5c-0.2,0.2-0.4-0.2-0.5,0.1c0,0.2-0.1,0.4-0.1,0.6
	c0,0.3,0.1,0.3,0.4,0.3c0.7,0,1-0.7,1.5-1c0.1,0,0.1-0.2,0-0.3c-0.1-0.4-0.6-0.7-1-0.6C58.1,25.8,58.1,26.1,58.3,26.5L58.3,26.5z
	 M60.7,27.2c0.2,0,0.4,0.1,0.4-0.1s-0.1-0.2-0.2-0.3s-0.2-0.3-0.4-0.5c-0.1-0.1-0.2-0.2-0.3-0.2c-0.1,0-0.2,0.2-0.2,0.3
	c-0.1,0.3,0,0.6,0.3,0.7c0,0,0.1,0,0.1,0L60.7,27.2z M58.5,24.5c0.3-0.1,0.6-0.4,0.8,0c0,0,0.2,0,0.2-0.1s0.1-0.2,0-0.3
	C59.2,24,58.7,24.2,58.5,24.5z M60.3,23.3h-0.8c-0.1,0-0.2,0-0.2,0.2c0,0.1,0.1,0.2,0.2,0.2c0,0,0.1,0,0.1,0
	C59.9,23.6,60.1,23.5,60.3,23.3z"/>
<path fill="#030202" d="M137.5,32.7c0.5-0.3,1-0.5,1.5-0.8c0.3-0.1,0.5-0.4,0.4-0.7c0-4.2,0-8.3,0-12.5c0-0.4-0.1-0.4-0.5-0.4
	c-0.9,0-1.7,0-2.6,0c-0.2,0-0.4,0.1-0.4-0.1c-0.1-0.2,0-0.4,0.1-0.5c0.1-0.2,0.3-0.3,0.4-0.5c0.4-0.7,1.2-1.1,2-1
	c0.9,0.1,0.9,0,0.9-0.8s0-1.6,0-2.5c0-0.6,0.2-1.2,0.8-1.6c0.9-0.7,1.8-1.2,2.9-1.7c0.4-0.2,0.3,0.2,0.3,0.4c0,1.9,0,3.7,0,5.6
	c0,0.5,0.1,0.7,0.6,0.7c1.3,0,2.5,0,3.8,0c0.2,0,0.4-0.1,0.5,0.1c0.1,0.2,0,0.4-0.1,0.6c-0.2,0.2-0.3,0.4-0.4,0.6
	c-0.4,0.7-1.1,1-1.9,0.9c-0.7-0.1-1.4,0-2.1,0c-0.3,0-0.4,0.1-0.4,0.4c0,3.7,0,7.4,0,11.1c0,0.2,0.1,0.3,0.2,0.4
	c1.3,0.9,2.9,1.4,4.5,1.5c0.1,0,0.2,0,0.4,0s0.5-0.2,0.6,0s-0.2,0.3-0.4,0.4c-1.2,1-2.4,1.9-3.5,2.9c-0.2,0.2-0.5,0.2-0.8,0.1
	c-1.6-0.8-3.3-1.4-5-2c-0.6-0.2-1.1-0.2-1.7-0.2L137.5,32.7z M140.2,13.4L140.2,13.4l0.3,0.4c-0.4,0.3-0.5,0-0.7-0.3
	c-0.1,0.2-0.1,0.4-0.1,0.6c0,0.1,0,0.3,0.1,0.2c0.5-0.2,0.9,0.2,1.3,0s0.7,0,1.2,0.1c-0.4,0.4-1.1,0.3-1.2,0.9l-0.1,0.1
	c0-0.1-0.1-0.2-0.1-0.2c-0.4,0-0.8,0-1.1,0.1c-0.2,0.1-0.1,0.4-0.1,0.6s0.2,0.2,0.3,0.1c0.6-0.4,1-0.1,1.5,0.2
	c0.1,0.1,0.3,0.2,0.4,0s0.2-0.2,0.3-0.1s0,0.1,0,0.2s-0.1,0.3-0.3,0.3c-0.2,0-0.4,0-0.6,0.1c0.1,0.2,0.2,0.4,0.1,0.6s-0.4,0-0.6,0
	s-0.3-0.1-0.5-0.1c0.2,0.6,0.8,0.9,1.4,0.8c0,0,0,0,0.1,0c0.6-0.2,1.3-0.2,2-0.2c0.3,0,0.6-0.2,0.8-0.5c-0.7,0-1.3-0.1-2-0.2
	c0.4-0.2,0.8-0.2,1.2-0.1c0.4,0.1,0.8,0,1.1-0.3c0.2,0,0.6,0.1,0.5,0.2c-0.3,0.3-0.1,0.9-0.8,1c0.4,0.1,0.7,0.2,0.9-0.1
	c0.3,0.4,0.6,0.2,0.9,0c-0.3-0.2-0.7-0.2-1,0c-0.1-0.3,0.4-0.6,0.1-0.9c0,0,0.1-0.1,0.1-0.1c0.5,0.1,1-0.3,1.5-0.1
	c0.1,0,0.2,0,0.2-0.1s-0.1-0.1-0.2-0.1H145c-0.5,0-1,0-1.5,0s-0.5-0.1-0.5-0.6c0-1.8,0-3.6,0-5.3c0-0.4-0.2-0.5-0.5-0.4
	c-0.7,0.3-1.4,0.7-2,1.2c0.5,0.2,0.9-0.3,1.3,0c-0.2,0.2,0,0.4,0.1,0.5s0.2,0,0.2-0.1s-0.1-0.3-0.2-0.4l-0.1-0.1
	c0.8-0.2,0.7,0.6,1.1,0.9c-0.1,0.2-0.4,0.1-0.3,0.3c0,0.4-0.2,0.3-0.4,0.1s-0.4-0.4-0.8-0.4c0,0,0-0.1,0-0.1c0.1,0,0.3-0.1,0.2-0.2
	s-0.2-0.1-0.3-0.1s-0.5-0.1-0.7-0.1s-0.7-0.1-0.7,0.3s-0.3,0.9,0.3,1v0.1C140.2,13.4,140.1,13.4,140.2,13.4L140.2,13.4z M136.4,18
	h1.1c0.3,0,0.4,0,0.4-0.4c-0.1-0.6,0-0.7,0.6-0.6c0.1,0,0.2,0,0.2-0.2s0-0.3-0.2-0.3c-0.2,0-0.4,0-0.6,0
	C137.4,16.8,136.8,17.3,136.4,18L136.4,18z M146.6,16.9c-0.2,0-0.4,0-0.5,0.2s0.2,0.1,0.4,0.1s0.5,0,0.5-0.2S146.8,17,146.6,16.9
	L146.6,16.9z"/>
<path fill="#030202" d="M97.9,25.9l1.1-0.4c0,0.3-0.2,0.3-0.2,0.4c-1.4,1-2.7,2-4.1,3.1c-0.2,0.2-0.6,0.3-0.9,0.1
	c-0.7-0.3-1.4-0.6-2.2-0.9c-0.8-0.4-1.7-0.6-2.6-0.5c-0.1,0-0.2,0-0.3,0c0,0,0,0-0.1-0.1c0.4-0.3,0.8-0.5,1.3-0.7
	c0.3-0.1,0.5-0.5,0.5-0.8c0-2.3,0-4.5,0-6.8c0-0.5,0.2-0.9,0.5-1.1c1.3-0.8,2.5-1.8,3.6-2.9c0.1-0.1,0.2-0.1,0.3-0.1c0,0,0,0,0,0
	c1.3,0.6,2.5,1.1,3.9,1.6c0.4,0.2,0.5,0.3,0.1,0.5c-0.7,0.6-1.1,1.5-0.9,2.4C97.9,21.6,97.9,23.7,97.9,25.9z M93.1,17.9v7.4
	c0,0.1,0,0.3,0.2,0.3c0.5,0.3,0.9,0.5,1.4,0.6c0.2,0.1,0.4,0,0.4-0.3c0-2.4,0-4.8,0-7.2c0-0.2,0-0.3-0.2-0.4
	C94.3,18.2,93.8,18.1,93.1,17.9L93.1,17.9z M91.4,19.4c0.4,0,0.8,0,1.1,0c0.1,0,0.3-0.1,0.3-0.2c0-0.1,0-0.1,0-0.2
	c-0.1-0.2-0.4-0.3,0-0.5c0.1-0.1,0-0.3-0.2-0.4c-0.5-0.1-1.1,0-1.5,0.4c-0.3,0.2-0.5,0.6-0.3,1C90.9,19.7,91.2,19.3,91.4,19.4
	L91.4,19.4z M95.6,20.4c0,0.2,0,0.4,0,0.6s-0.1,0.5,0.1,0.5s0.7,0.1,0.8-0.2s0.3-0.3,0.5-0.5s0.5-0.2,0.4-0.6s-0.4-0.7-0.9-0.7
	c-0.2,0-0.7,0.1-0.6,0.4C96.1,20.6,95.8,20.5,95.6,20.4L95.6,20.4z M94.4,17.8v0.1c0.2,0.1,0.4,0.1,0.6,0.2c0.1,0.1,0.3,0,0.3-0.1
	c0,0,0,0,0,0c0.1-0.1,0.1-0.2,0.1-0.3s-0.2,0-0.3,0L94.4,17.8z M98.1,17.3L98.1,17.3l-0.7-0.1c-0.2,0-0.2,0.1-0.2,0.2
	s0.2,0.2,0.3,0.1L98.1,17.3z M97.4,18.2c0-0.2-0.2-0.1-0.3-0.1s-0.2,0-0.2,0.2c0,0.1,0.1,0.2,0.2,0.2c0,0,0,0,0,0
	C97.4,18.5,97.4,18.3,97.4,18.2L97.4,18.2z"/>
<path fill="#030202" d="M110.2,27.6l-2.3,1.6c-0.1,0.1-0.2,0.1-0.4,0c-0.8-0.4-1.6-0.8-2.4-1.1c-0.2-0.1-0.2-0.2,0-0.3
	c0.9-0.3,0.8-1,0.8-1.8c0-2.4,0-4.7,0-7.1c0-0.3-0.1-0.5-0.4-0.6c0,0,0,0,0,0c-0.7-0.2-1.4-0.4-2.1-0.6c-0.3-0.1-0.4,0-0.4,0.3
	c0,2.8,0,5.6,0,8.4c0,0.3,0.1,0.3,0.3,0.4c1,0.6,1,0.6,0.1,1.2c-0.5,0.3-1,0.9-1.5,0.9c-0.6-0.1-1.1-0.4-1.6-0.7
	c-0.3-0.1-0.6-0.3-0.8-0.5c0.1,0,0.1-0.1,0.2-0.1c1-0.4,1.1-1.1,1.1-2.1c-0.1-2.3,0-4.6,0-6.9c0-0.3-0.1-0.5-0.3-0.6
	c-0.3-0.1-0.7-0.3-1-0.5s-0.2-0.2,0-0.4c0.7-0.4,1.3-0.9,2-1.3c0.1-0.1,0.3-0.1,0.5,0c0.5,0.3,1.1,0.6,1.6,0.9
	c0.2,0.1,0.4,0.1,0.5,0c0.4-0.4,1-0.8,1.5-1.1c0.6-0.2,1.1,0.4,1.7,0.6s1.3,0.5,2,0.7c0.3,0.1,0.5,0.2,0.1,0.5
	c-0.8,0.6-1.2,1.7-1,2.7c0.1,2.2,0,4.3,0,6.5c-0.1,0.4,0.2,0.7,0.6,0.8C109.3,27.4,109.7,27.5,110.2,27.6z M107.9,19.6
	c0-0.2,0.1-0.4-0.1-0.5s-0.3,0.1-0.5,0.2c-0.2,0.2-0.5,0.3-0.7,0.3c-0.1,0-0.3-0.1-0.3,0.1s0.2,0.2,0.2,0.3c0.1,0.1,0.2,0.1,0.3,0.2
	c0.3,0.1,0.5,0.3,0.3,0.7c0,0.1-0.1,0.2,0.1,0.3s0.5,0.1,0.6,0c0.2-0.2,0.2-0.4,0-0.6c-0.1-0.2-0.2-0.3,0-0.5S107.9,19.7,107.9,19.6
	L107.9,19.6z M100.8,16.8c0.5-0.1,1-0.1,1.5,0C101.7,16.2,101.6,16.2,100.8,16.8L100.8,16.8z M102.1,22.6v-0.3
	c0-0.2-0.1-0.3-0.3-0.4c-0.1,0-0.3,0-0.4,0.1c-0.1,0.2,0.1,0.2,0.2,0.3c0,0.1,0.1,0.1,0.1,0.2c0,0.2,0,0.4,0.2,0.3
	S102.2,22.7,102.1,22.6L102.1,22.6z M101.3,20.2c0.3,0.2,0.6,0.5,1,0.3c0.2,0,0.3-0.1,0.2-0.3s-0.1-0.3-0.3-0.2
	S101.6,20.1,101.3,20.2L101.3,20.2z"/>
<path fill="#030202" d="M132.2,31.2l-0.3-0.1l-3.5-1.7c-0.4-0.2-0.4-0.3,0-0.5c0,0,0.1,0,0.1-0.1c0.5-0.4,1.3-0.6,1.5-1.1
	c0.2-0.7,0.2-1.3,0.1-2c0-3,0-5.9,0-8.9c0.1-0.5-0.2-1-0.8-1.2c-0.3-0.1-0.7-0.3-1-0.5c-0.3-0.2-0.3-0.3,0-0.5
	c1.1-0.8,2.3-1.6,3.4-2.3c0.1-0.1,0.3-0.2,0.5-0.1c1.2,0.7,2.4,1.3,3.6,1.9c0.3,0.2,0.3,0.3,0,0.4c-0.5,0.3-1,0.7-1.5,1
	c-0.2,0.1-0.3,0.3-0.3,0.5c0,3.6,0,7.2,0,10.9c0,0.2,0.1,0.5,0.3,0.6c0.5,0.2,1,0.5,1.5,0.8c0.2,0.1,0.2,0.2,0,0.4l-3.5,2.3
	L132.2,31.2z M133.4,14.7v0.1c-0.3,0.3,0.2,0.3,0.1,0.5c-0.2,0.2-0.4,0.2-0.5-0.1s-0.3-0.4-0.2-0.7s-0.2-0.3-0.4-0.3
	s-0.1,0.2-0.1,0.3s-1,0.6-1.3,0.5s-0.8,0.1-1.2-0.1c-0.1-0.1-0.2,0-0.3,0.2s0,0.2,0.1,0.3c0.6,0.2,1.1,0.6,1.5,1
	c-0.2,0.1-0.4,0.1-0.5,0.2s-0.1,0.2,0,0.3c0.3,0.1,0.7,0,0.8-0.4c0-0.1,0-0.2,0-0.2c0.4-0.2,0.8-0.3,1.2-0.2c0.1,0,0.1,0,0.2,0
	c0.6-0.1,1.1-0.3,1.5-0.8c0.3-0.2,0.8-0.3,0.8-0.7s-0.6-0.5-1-0.6c-0.2-0.2-0.5-0.4-0.8-0.5c-0.2-0.1-0.4-0.1-0.6,0.1
	s-0.2,0.4,0.1,0.5c0,0,0,0.1,0,0.2C132.8,14.5,133,14.7,133.4,14.7L133.4,14.7z M130.9,19.6c0-0.2,0.2-0.5,0.1-0.8
	c-0.2-0.5,0.1-0.4,0.4-0.4c0.1,0,0.3,0.1,0.4,0c0.1-0.1,0-0.3-0.1-0.4c-0.1-0.2-0.4-0.3-0.1-0.6c0.1-0.1-0.1-0.1-0.2-0.2
	c-0.3-0.2-0.6,0.1-0.9-0.2c0.1,0.4-0.1,0.8,0.4,0.9c0.1,0,0.1,0.2-0.1,0.3c-0.4,0-0.3,0.3-0.3,0.5s0,0.7,0,1s0,0.5,0.3,0.4
	s0.6-0.1,0.6-0.4S131.1,19.7,130.9,19.6C130.9,19.6,130.9,19.6,130.9,19.6L130.9,19.6z M132.9,17.6c0.4,0,0.9-0.3,0.9-0.6
	s-0.2-0.2-0.4-0.2c-0.4,0-1,0.3-1,0.5C132.5,17.5,132.7,17.6,132.9,17.6L132.9,17.6z M130.7,14.1c0.2-0.1,0.4,0,0.4-0.2
	c0-0.1-0.1-0.2-0.2-0.3c0,0,0,0-0.1,0c-0.2,0-0.4,0.1-0.5,0.3C130.4,14,130.6,14,130.7,14.1L130.7,14.1z M130.9,20.8
	c0.2,0,0.4,0.3,0.6,0c0.1-0.1,0.1-0.2,0-0.3c0,0,0,0,0,0C131.3,20.3,131.1,20.5,130.9,20.8L130.9,20.8z M129.7,14.4
	c0.2,0.1,0.4,0.2,0.7,0s0.1-0.2,0-0.2C130.1,14,129.9,14.2,129.7,14.4L129.7,14.4z M132.1,12.7c-0.1,0.1-0.3,0.1-0.2,0.2
	s0.1,0.3,0.2,0.2c0.1,0,0.2-0.1,0.3-0.3C132.4,12.7,132.2,12.7,132.1,12.7L132.1,12.7z M131.6,13c0,0.3-0.3,0.4,0,0.6s0.3,0.1,0.3,0
	S131.7,13.3,131.6,13L131.6,13z"/>
<path fill="#040404" d="M113.8,50.5c-0.3-0.1-0.6-0.1-0.9,0c-0.8,0.2-0.9,0.1-1.3-0.6c-0.1-0.1-0.1-0.3-0.3-0.3s-0.1,0.3-0.1,0.4
	c0,0.5-0.2,0.7-0.7,0.4c-0.2-0.1-0.3-0.2-0.5-0.2c-1.3,0.1-2.5-0.1-3.8,0v-0.1c0.2-0.4,0.4-0.8,0.6-1.2c0.1-0.2,0.2-0.1,0.3-0.1
	s0.2,0.1,0.2,0.2s0.1,0.3,0.2,0.3s0.2-0.2,0.1-0.3s0.1-0.2,0.3-0.2h3c0.1,0,0.3,0,0.3,0.1c0.1,0.5,0.4,0.2,0.6,0.1
	c0.9-0.5,1.7-1.1,2.4-1.9c0.3-0.3,0.7-0.5,1.1-0.5c0.2,0,0.5,0,0.7-0.1c0,0-0.1-0.1-0.1-0.1c-0.3-0.1-0.8,0.1-0.9-0.2
	s0.2-0.6,0.4-0.8c0.7-1.4,1.1-2.9,1.1-4.4c0-0.3,0.1-0.6,0.1-0.9c0-0.2,0.1-0.3,0.3-0.3c0.4,0,0.8-0.3,1.2-0.3c0.1,0,0.2,0,0.3-0.1
	c0.1-0.1,0.2-0.2,0.4-0.1s0.2,0.3,0.2,0.5c0,0.9,0,1.7,0.2,2.6c0.1,0.2,0.1,0.5,0.2,0.8s0,0.4-0.4,0.4h-1v0.2h1.1
	c0.3,0,0.5,0.1,0.6,0.4c0.2,0.5,0.4,1,0.6,1.4c0,0.1,0.2,0.2,0,0.3s-0.2,0-0.4-0.1l-0.2-0.1c-0.1,0-0.1-0.1-0.2,0
	c-0.1,0.1-0.1,0.1,0,0.2c0,0,0,0,0,0c0.2,0.1,0.2,0.6,0.7,0.3c0.1-0.1,0.3,0.1,0.4,0.3c0.1,0.3,0.3,0.4,0.6,0.6s0.7,0.5,1.1,0.7
	s0.4,0.4,0.6,0.6c0,0,0,0,0.1,0.1c0.4,0.1,0.8,0.4,1,0.8c0,0.1,0,0.1,0,0.2c-0.2,0.7-0.8,1.3-1.5,1.6c-0.1,0-0.3,0.1-0.3-0.1
	c0-0.4-0.3-0.4-0.6-0.6s-0.3,0.2-0.4,0.3c0,0.1-0.2,0.1-0.3,0.1c-0.1-0.1,0-0.1,0-0.2c0.1-0.3-0.2-0.5-0.4-0.7s-0.4-0.2-0.2-0.5
	c0,0,0-0.2,0-0.2c-0.4,0.2-0.5-0.3-0.8-0.4s-0.5,0.3-0.9,0.4c-0.1-0.2,0.1-0.5-0.1-0.7l0,0c0.5,0.2,1,0,1.4,0.4
	c0.1,0.1,0.2,0.1,0.2,0c0,0,0,0,0,0c0-0.1,0-0.2-0.1-0.2c-0.4-0.2-0.8-0.6-1.1-1c-0.5-0.6-1-1.4-1.2-2.2c0-0.1,0-0.3-0.2-0.2
	s-0.2,0.2-0.2,0.3c-0.3,0.8-0.6,1.6-1.1,2.4c-0.1,0.1-0.1,0.3-0.3,0.3s-0.2-0.2-0.2-0.4c0-0.5-0.3-0.5-0.7-0.4
	c0.4,0.4,0.5,1,0.2,1.6c-0.3,0.7-0.8,1.2-1.5,1.4L113.8,50.5z M119,46c-0.3,0-0.3,0.3-0.3,0.4s0,0.4,0.3,0.4c0.4,0,0.1-0.4,0.3-0.5
	S119.1,46,119,46z M119.5,47.3c0.1,0.2,0.2,0.4,0.5,0.5c0.1,0,0.1-0.1,0.1-0.1C120,47.5,119.8,47.3,119.5,47.3L119.5,47.3z
	 M115.2,46.7c0,0.3,0.1,0.5,0.3,0.6c0.1,0,0.1,0,0.1-0.1C115.6,46.9,115.5,46.8,115.2,46.7L115.2,46.7z"/>
<path fill="#0C0C0C" d="M4.8,4.9C4.9,5,4.9,5.3,4.9,5.4v6c0,6,0,12,0,18c0,1,0,1.9,0,2.9c0.1,0.5-0.2,0.9-0.7,1.1
	c-0.2,0.1-0.4,0.1-0.4-0.3c0-0.1,0-0.2,0-0.4c0-2.7,0-5.5,0-8.2c0.1-5.3-0.1-10.6,0-15.9c0-1.1,0.2-2.1,0.5-3.1
	C4.4,5.3,4.6,5.1,4.8,4.9z"/>
<path fill="#080808" d="M118.4,21.3c0.1-3.9,0.1-7.8,0.1-11.7c0-0.6,0.2-1.2,0.7-1.6c0.1-0.1,0.2-0.2,0.3-0.1
	c0.1,0.1,0.1,0.2,0.1,0.3c0,1.4,0,2.8,0,4.2c0,3.5,0,7,0,10.4c0,2.9,0,5.7,0,8.6c0,0.7-0.2,1.4-0.7,1.9c-0.1,0.1-0.2,0.3-0.4,0.2
	s-0.1-0.3-0.1-0.4c0-1.4,0-2.7,0-4.1L118.4,21.3z M119.3,19.3v-2.5c0-0.2,0-0.4-0.2-0.4s-0.2,0.2-0.3,0.4c0,0.6,0,1.2,0,1.8
	c0,0.1,0,0.2,0.1,0.2S119.1,19.1,119.3,19.3L119.3,19.3z M119.3,12.2c0-0.1,0-0.2,0-0.3c0-0.1,0.1-0.4-0.2-0.4s-0.3,0.2-0.3,0.5
	c0,0.1,0,0.1,0,0.2c0.1,0.2-0.2,0.7,0.2,0.7S119.2,12.3,119.3,12.2L119.3,12.2z M118.7,23.5c0.1,0.4-0.2,0.8,0.2,1
	c0.1,0.1,0.3,0.1,0.3,0c0,0,0-0.1,0-0.1C119.3,23.9,119.1,23.7,118.7,23.5L118.7,23.5z M119.3,21.3c0-0.2-0.2-0.3-0.4-0.4
	s-0.2,0.1-0.2,0.2c0,0.3,0.2,0.3,0.4,0.3S119.3,21.3,119.3,21.3L119.3,21.3z"/>
<path fill="#080808" d="M82.5,38.9c0.2,0.1,0.5-0.1,0.7,0.2c-0.2,0.1-0.4,0.4-0.8,0.2c-0.1-0.1-0.2,0-0.2,0.2s0.1,0.2,0.2,0.2
	s0.4,0,0.6,0c0.2,0,0.3,0.2,0.3,0.4c0,0,0,0,0,0c-0.1,0.2-0.2,0.1-0.4,0s-0.3-0.2-0.4,0s0.2,0.2,0.3,0.3c0.3,0.1,0.5,0.2,0.6,0.5
	c0.2,0.5,0,0.7-0.5,0.8c-0.7,0.1-1.3,0-2-0.1c-0.7,0-1.3,0-2,0c-0.3,0-0.4-0.1-0.4-0.4c0-1.2,0-1.2,1.2-1.3h0.5
	c0.1,0,0.4,0.1,0.3-0.2c0-0.2-0.1-0.4-0.3-0.4c0,0-0.1,0-0.1,0c-0.5,0-1,0-1.5,0s-0.4-0.3-0.4-0.6s-0.2-0.7,0.4-0.6
	c0.4,0,0.8,0,1.1,0c0.3,0,0.7,0.1,0.8-0.3c0-0.1,0.2-0.1,0.3-0.1c0.5,0.1,1.1-0.3,1.4,0.4c0,0.1,0.2,0.1,0.3,0.1s0.3-0.1,0.3,0.2
	c0,0.2-0.1,0.3-0.2,0.4c0,0,0,0,0,0C82.6,38.7,82.5,38.8,82.5,38.9C82.5,38.9,82.5,38.9,82.5,38.9z M82.5,40.6c-0.2,0-0.4,0-0.4,0.2
	s0.2,0.3,0.4,0.3s0.4,0,0.4-0.2S82.6,40.6,82.5,40.6z M80.3,41.1c0.2,0,0.4,0,0.3-0.2s-0.2-0.3-0.4-0.3s-0.3,0.1-0.3,0.3
	S80,41.2,80.3,41.1L80.3,41.1z"/>
<path fill="#060606" d="M128.8,11.5l2.7-3.2c0.1-0.1,0.3-0.3,0.4-0.3l3.5-1.3c0.1,0,0.3-0.2,0.4,0s-0.1,0.2-0.2,0.3
	c-0.6,0.7-1.2,1.3-1.8,2.1c-0.5,0.7-1.2,1.2-2.1,1.5c-0.8,0.3-1.6,0.6-2.5,1C129.1,11.5,129,11.6,128.8,11.5z"/>
<path fill="#080808" d="M68.4,38.7c0.1,0.1,0.1,0.2,0.2,0.3s0.4,0.2,0.3,0.4c-0.1,0.1-0.3,0.2-0.5,0.2c-0.9-0.1-1.8-0.1-2.6-0.1
	c-0.2,0-0.3-0.1-0.2-0.3s0.5-0.6,0.4-1.1C66,38,66,38,66.1,38c0.1,0,0.3-0.1,0.3-0.2c0.2-0.7,0.8-0.8,1.3-1l0,0
	c0.1,0.2,0.1,0.6,0.5,0.4c0,0,0.1,0,0.1,0.1c0,0,0,0.1,0,0.1c-0.1,0.2-0.3,0-0.4,0s0.2,0.2,0,0.4c-0.2,0-0.2-0.2-0.2-0.3
	c-0.1-0.1-0.3-0.2-0.4-0.1c0,0-0.1,0-0.1,0.1c-0.2,0.2,0,0.2,0.1,0.3c0.2,0.2,0.5,0.3,0.8,0.3l0.5,0.1c0.1,0,0.1,0.2,0.1,0.3
	s-0.2,0.1-0.2,0.1S68.4,38.6,68.4,38.7C68.4,38.7,68.4,38.7,68.4,38.7z"/>
<path fill="#080808" d="M89,40.7c-0.3,0-0.5,0-0.8,0c-0.5,0-0.9-0.4-0.9-0.8c0-0.1,0-0.3,0.1-0.4c0.1-0.2,0.2-0.1,0.3-0.1
	c0.9,0.1,1.8,0,2.7,0.1c0.2,0,0.3,0.1,0.2,0.3c0,0.5-0.3,0.9-0.8,0.9c0,0-0.1,0-0.1,0C89.5,40.7,89.2,40.7,89,40.7L89,40.7z"/>
<path fill="#080808" d="M120.8,38.2l-1.2,0.1c-0.3,0-0.7-0.1-0.7,0.4c0,0-0.1,0.1-0.2,0.1c-0.6,0.2-1.3,0.3-1.9,0.4c0,0-0.1,0-0.1,0
	c-0.1-0.5-0.2-0.9-0.1-1.4c0.1-0.1,0.2-0.1,0.3-0.1h1.6c0.2,0,0.4,0,0.5,0.2s0.3,0.1,0.4,0.1C119.9,38.1,120.4,38.1,120.8,38.2
	L120.8,38.2C120.8,38.2,120.8,38.2,120.8,38.2z"/>
<path fill="#0C0C0C" d="M66.2,39.9h2.7c-0.4,0.5-0.7,1-1,1.4c-0.1,0.1-0.2,0.1-0.2,0L66.2,39.9z"/>
<path fill="#0C0C0C" d="M113.8,50.5h0.1c-0.2,0.6-0.7,0.7-1.1,1c-0.1,0.1-0.2-0.1-0.3-0.2s-0.3-0.4-0.3-0.6s0.2-0.1,0.4-0.1
	C113,50.5,113.4,50.8,113.8,50.5z"/>
<path fill="#0C0C0C" d="M83.4,39.3c0.4-0.3,0.7-0.6,0.3-1c-0.1-0.1,0-0.2,0.2-0.2s0.5-0.1,0.5,0.1c0,0.3,0,0.6,0,0.9
	c0,0.2-0.1,0.1-0.2,0.1L83.4,39.3z"/>
<path fill="#0C0C0C" d="M108.6,52.7c-0.3-0.2-0.6-0.3-0.9-0.3c0,0,0-0.1,0-0.1s0.7-0.5,0.8-0.5c0.2,0.2,0.4,0.4,0.4,0.7
	C108.8,52.7,108.7,52.6,108.6,52.7z"/>
<path fill="#0C0C0C" d="M106.2,50v0.1c0,0-0.1,0-0.2,0.1c-0.3,0-0.6,0.1-0.8-0.1s0.2-0.4,0.3-0.6c0,0,0-0.1,0-0.1l0,0
	c0.5-0.1,0.6,0,0.4,0.5C105.9,50.1,106,50.1,106.2,50z"/>
<path fill="#0C0C0C" d="M90.1,39.1c-0.2-0.1-0.5,0.1-0.4-0.2c0-0.2,0-0.5,0.2-0.4s0.7-0.1,0.8,0.3S90.3,39,90.1,39.1z"/>
<path fill="#0C0C0C" d="M83.7,40.7c0.3,0.1,0.7,0,0.6,0.6c0,0.1,0,0.2-0.2,0.2C83.6,41.4,83.5,41.1,83.7,40.7z"/>
<path fill="#AA1D22" d="M120.8,38.2C120.8,38.2,120.8,38.2,120.8,38.2L120.8,38.2c0.6-0.2,1.3-0.2,1.9-0.1L120.8,38.2z"/>
<path fill="#0C0C0C" d="M118.7,50.7c0,0.2,0.1,0.4-0.2,0.4s-0.2-0.1-0.2-0.3s-0.2-0.5,0.2-0.6S118.7,50.5,118.7,50.7z"/>
<path fill="#0C0C0C" d="M116.9,50.7c0.1,0,0.3,0,0.3,0.2s0,0.4-0.3,0.4s-0.2-0.2-0.2-0.4S116.7,50.6,116.9,50.7z"/>
<path fill="#0C0C0C" d="M95.7,51.3L95.7,51.3h2.6l0.3,0.1L95.7,51.3z"/>
<path fill="#0C0C0C" d="M98.5,40c-0.2-0.2-0.3-0.3-0.4-0.6c0.2,0.1,0.6-0.2,0.7,0.1S98.4,39.7,98.5,40z"/>
<path fill="#080808" d="M96.4,38.1L96.4,38.1c-0.5,0.1-0.9,0.1-1.3,0l0,0L96.4,38.1z"/>
<path fill="#0C0C0C" d="M98,48.7L98,48.7c0.3,0.1,0.3-0.2,0.5-0.1c0,0.3-0.1,0.4-0.3,0.6C98,49,98.4,48.6,98,48.7z"/>
<path fill="#0C0C0C" d="M95.3,39.9c0,0.1-0.1,0.2-0.2,0.1c-0.2,0-0.3-0.2-0.3-0.3c0-0.1,0-0.1,0.1-0.1c0,0,0,0,0,0
	C95.1,39.6,95.3,39.7,95.3,39.9z"/>
<path fill="#0C0C0C" d="M100.8,37.3c0.2,0.1,0.4,0.1,0.4,0.3s-0.1,0.2-0.2,0.1s-0.4-0.1-0.4-0.3C100.6,37.3,100.7,37.3,100.8,37.3z"
	/>
<path fill="#0C0C0C" d="M97.3,38.3h0.4c0,0.2,0,0.4-0.2,0.4S97.5,38.3,97.3,38.3z"/>
<path fill="#080808" d="M101.4,41.5c-0.1,0-0.1,0-0.1-0.1s0.1-0.1,0.1-0.1L101.4,41.5z"/>
<path fill="#080808" d="M103.2,37.9h-0.2C103.1,37.9,103.2,37.8,103.2,37.9C103.2,37.8,103.3,37.8,103.2,37.9z"/>
<path fill="#080808" d="M110.9,39.8v-0.2C111.1,39.7,111.1,39.7,110.9,39.8z"/>
<path fill="#080808" d="M103.2,41.7L103.2,41.7l0.1-0.1L103.2,41.7z"/>
<path fill="#040404" d="M118.7,48.6c0,0-0.1,0,0-0.1S118.7,48.4,118.7,48.6L118.7,48.6z"/>
<path fill="#080808" d="M100.1,42.5l0.1,0.1C100.1,42.6,100,42.5,100.1,42.5z"/>
<path fill="#080808" d="M67.8,36.8L67.8,36.8L67.8,36.8z"/>
<path fill="#030202" d="M34,31.1L34,31.1L34,31.1L34,31.1L34,31.1z"/>
<path fill="#080808" d="M109.5,39.3c0.3-0.1,0.6,0,0.8,0.2C110,39.5,109.7,39.5,109.5,39.3z"/>
<path fill="#080808" d="M103.9,39.2c0.1,0.1,0.1,0.2,0,0.3s-0.1-0.1-0.1-0.2S103.8,39.2,103.9,39.2z"/>
<path fill="#080808" d="M100.6,42.3h0.1c0,0.1-0.1,0.2-0.2,0.1S100.6,42.3,100.6,42.3z"/>
<path fill="#080808" d="M109.1,39.5L109.1,39.5L109.1,39.5C109.2,39.4,109.2,39.5,109.1,39.5C109.2,39.5,109.2,39.4,109.1,39.5z"/>
<path fill="#080808" d="M102.2,37.9L102.2,37.9C102.2,38,102.2,38,102.2,37.9C102.1,38,102.2,38,102.2,37.9L102.2,37.9z"/>
<path fill="#B21E23" d="M15.6,24.4c-0.1,0.1-0.2,0.2-0.3,0.3s-0.2,0-0.2,0c0.4-0.4-0.3-0.3-0.3-0.5c0-0.1,0-0.2,0.1-0.3c0,0,0,0,0,0
	c0.2-0.1,0.4-0.2,0.7-0.3c0.5,0,1-0.3,1.3-0.7c0.2-0.2,0.4-0.4,0.7-0.3c0.1,0,0.3,0,0.4,0.1s0,0.3-0.1,0.4s0.1,0.4,0.1,0.6
	c0,0.3,0,0.5,0,0.8c0,0.2-0.2,0.3-0.3,0.4s-0.2-0.1-0.3-0.2c-0.3-0.2-0.7-0.1-0.9,0.2c0,0.1-0.1,0.1-0.1,0.2
	c-0.1,0.2-0.1,0.6-0.5,0.4s-0.6-0.4-0.3-0.8C15.6,24.7,15.6,24.5,15.6,24.4z"/>
<path fill="#B21E23" d="M18.6,27.9c-0.6,0.1-1.2,0-1.8-0.2c-0.5-0.1-1-0.2-1.5-0.1c-0.6,0-0.7-0.3-0.7-0.8c0-0.2,0.1-0.2,0.3-0.2
	c0.8,0.1,1.7,0.2,2.6,0.1c0.2,0,0.5,0.1,0.4,0.4S18.4,27.5,18.6,27.9z"/>
<path fill="#B21E23" d="M25.7,23c0,0.5-0.3,0.6-0.9,0.6c-0.6,0-1.3,0-1.9,0.1c-0.2,0-0.5,0.2-0.4-0.2s-0.2-0.6,0.3-0.6
	c0.8,0,1.7-0.2,2.5-0.4C25.9,22.3,25.7,22.8,25.7,23z"/>
<path fill="#AA1D22" d="M33.7,22.5c0.2,0,0.1,0.3,0.3,0.4c0.2,0,0.5,0.1,0.7,0.1H33c0-0.2,0.2-0.4,0-0.6c-0.1-0.2-0.1-0.4,0-0.6
	c0.2-0.2,0.4-0.1,0.6,0s0.5,0.2,0.7-0.1c0.1-0.1,0.2,0,0.3-0.1c0.5-0.1,0.9,0.3,1.3,0.1c0.3-0.1,0.2,0.4,0.2,0.4
	c-0.3,0.1-0.5,0.4-0.9,0.3C34.7,22.2,34.2,22.3,33.7,22.5z"/>
<path fill="#B21E23" d="M24.7,28.7c0-0.3-0.3-0.6,0.2-0.8c0.2-0.1,0.6-0.2,0.7,0.1c0.2,0.3,0.2,0.7,0,1.1c-0.5,0.6-1.3,0.8-2,0.5
	c-0.1-0.1-0.3-0.1-0.3-0.2s0.2-0.2,0.3-0.2s0.6,0,0.5-0.4l0,0L24.7,28.7L24.7,28.7L24.7,28.7L24.7,28.7z"/>
<path fill="#B21E23" d="M22.5,22.7c-0.1-0.7,0-0.9,0.6-0.9c0.8,0,1.6-0.3,2.3-0.7c0.1,0,0.2-0.2,0.3,0c0.1,0.1,0.1,0.3,0,0.4
	c-0.4,0.3-0.7,0.8-1.2,0.6c-0.1,0-0.2,0-0.2,0C23.8,22.7,23,22.4,22.5,22.7z"/>
<path fill="#AA1D22" d="M35.6,29.2c-0.3-0.4-0.2-0.6,0.1-0.7c0.2,0,0.3,0,0.2,0.2c0,0.1,0,0.2,0,0.2c0.3,0.5,0,0.7-0.4,0.8
	c-0.1,0.1-0.2,0.3-0.4,0.1s-0.1-0.3,0-0.5c-0.7-0.1-1.3,0.3-2-0.2C34,28.7,34.7,29,35.6,29.2z"/>
<path fill="#AA1D22" d="M24.1,28.5c-0.4-0.1-0.8-0.2-0.9,0.4c0,0.1-0.2,0.2-0.3,0.2c0,0,0,0-0.1,0c-0.1-0.1-0.1-0.3,0-0.4
	c0,0,0,0,0.1-0.1c0.2-0.1,0.4-0.3,0.3-0.6c0-0.2,0.8-0.5,0.9-0.3c0.1,0.1,0.1,0.2,0,0.3c0,0,0,0,0,0C24,28.1,24.1,28.3,24.1,28.5z"
	/>
<path fill="#AA1D22" d="M24.2,25.9c-0.2,0.4-0.4,0.7-0.9,0.5c-0.1,0-0.3,0-0.4,0c-0.1,0-0.4,0.2-0.4-0.1s0.2-0.2,0.4-0.2
	C23.3,26,23.8,25.9,24.2,25.9z"/>
<path fill="#B21E23" d="M22.7,27.4c-0.2,0-0.2,0-0.2-0.1s-0.1-0.3,0.2-0.4c0.2,0,0.5-0.1,0.7-0.2c0.2-0.2,0.4,0.1,0.4,0.2
	s-0.2,0.2-0.3,0.2C23.2,27.2,22.9,27.2,22.7,27.4z"/>
<path fill="#AA1D22" d="M34.5,26.5c0.1,0.1,0.2,0.2,0.3,0.2c0.2,0,0.2,0.2,0.2,0.3s-0.1,0.1-0.2,0.1s-0.3-0.1-0.4-0.3
	C34.5,26.8,34.5,26.7,34.5,26.5z"/>
<path fill="#AA1D22" d="M35.5,26.3c0.1,0.1,0.4,0,0.4,0.2c0,0.1,0,0.2-0.2,0.2s-0.4-0.1-0.5-0.3S35.4,26.3,35.5,26.3z"/>
<path fill="#AA1D22" d="M25.7,26.5c-0.3-0.2-0.4,0.2-0.7,0.1C25.2,26.3,25.5,26.2,25.7,26.5z"/>
<path fill="#AA1D22" d="M31.7,29.1c-0.2-0.1-0.4-0.1-0.3-0.3c0-0.1,0.1-0.2,0.2-0.2c0.1,0,0.1,0.1,0.1,0.1c0,0,0,0.1,0,0.1
	C31.7,28.9,31.8,29,31.7,29.1z"/>
<path fill="#AA1D22" d="M24.2,28.7L24.2,28.7C24.2,28.6,24.2,28.7,24.2,28.7L24.2,28.7z"/>
<path fill="#AA1D22" d="M123,12.1c0.1-0.1,0.2-0.1,0.2-0.1c0.1,0,0.4,0,0.4-0.2c0-0.1,0-0.2-0.1-0.2c0,0,0,0,0,0
	c-0.2,0-0.4-0.1-0.6,0c-0.6,0.6-1.4,0.2-2,0.2c-0.1,0-0.1-0.1-0.2-0.2s0.1-0.2,0.2-0.2c0.6-0.1,1.2-0.2,1.9-0.2c0.2,0,0.4,0,0.3-0.3
	s-0.1-0.3,0.1-0.3s0.5-0.1,0.6,0.2c0,0.4,0,0.8,0,1.2c0,0.1-0.1,0.2-0.2,0.2c0,0-0.1,0-0.1,0L123,12.1z"/>
<path fill="#AA1D22" d="M125.3,5.1c-0.3,0.3-0.6,0.3-0.8,0.7s-0.4,0.1-0.7,0c-0.2-0.1-0.4-0.1-0.6,0c-0.1,0.1-0.3,0.4-0.5,0
	s-0.2-0.2,0.2-0.5c0-0.1-0.1-0.1-0.1-0.1l-0.2-0.2C123.5,4.8,124.4,4.9,125.3,5.1z"/>
<path fill="#B21E23" d="M122.1,18c-0.2,0-0.3,0-0.5,0c-0.2-0.1-0.5-0.2-0.5,0.3c0,0.1-0.1,0.2-0.3,0.2s-0.1-0.2-0.1-0.3s0-0.3,0-0.5
	c0-0.4-0.1-0.8,0.7-0.4l-0.4-0.6c0.4-0.1,0.7-0.1,1.1,0c0.2,0,0.4,0.1,0.4,0.3c0,0,0,0,0,0c0,0.3-0.2,0.1-0.4,0.2h-0.2
	C122.1,17.4,121.8,17.7,122.1,18z"/>
<path fill="#B21E23" d="M120.8,21.1c0.8,0.3,1,0.8,0.6,1.4c-0.1,0.2-0.2,0.3-0.4,0.3s-0.2-0.2-0.2-0.4c0-0.4,0-0.8,0-1.2
	C120.7,21.2,120.8,21.1,120.8,21.1z"/>
<path fill="#B21E23" d="M122.7,17.1c0.3,0,0.7,0,1,0.2c0.2,0,0.2,0.2,0.2,0.3s-0.2,0.1-0.3,0.1C123.2,17.6,122.9,17.5,122.7,17.1z"
	/>
<path fill="#AA1D22" d="M122.4,5.7c-0.2,0-0.4-0.2-0.6-0.1s-0.3,0-0.3-0.2s-0.1-0.3,0.1-0.4s0.2-0.1,0.3,0.1S122.4,5.4,122.4,5.7
	L122.4,5.7z"/>
<path fill="#AA1D22" d="M123,16.6c-0.2-0.1-0.4-0.2-0.4-0.4s0.2-0.2,0.4-0.2s0.3,0.2,0.3,0.4S123.2,16.6,123,16.6z"/>
<path fill="#AA1D22" d="M121,14.6c0.8-0.2,0.8-0.2,1.5,0.2C122,14.8,121.5,14.5,121,14.6z"/>
<path fill="#AA1D22" d="M128.2,5.9c0.3-0.5,0.8-0.2,1.2-0.3C129.1,6,128.6,6.1,128.2,5.9z"/>
<path fill="#AA1D22" d="M122,10.8c-0.3,0.1-0.6,0.1-0.8,0.2c-0.1,0-0.3,0-0.3-0.1c0,0,0,0,0,0c0-0.2,0.2-0.1,0.3-0.1
	C121.4,10.8,121.7,10.5,122,10.8z"/>
<path fill="#AA1D22" d="M131.7,4.6h-0.8c-0.1,0-0.2,0-0.2-0.1c0-0.1,0.1-0.2,0.2-0.1c0,0,0,0,0,0l0.8,0.2L131.7,4.6z"/>
<path fill="#AA1D22" d="M127,6.1c0.3-0.2,0.8-0.3,1.1-0.1C127.8,6.2,127.3,6.2,127,6.1z"/>
<path fill="#AA1D22" d="M122.6,21.7c-0.1,0.2-0.1,0.3-0.3,0.3s-0.3,0-0.3-0.2s0.2-0.2,0.3-0.2C122.4,21.5,122.5,21.5,122.6,21.7
	C122.6,21.7,122.6,21.7,122.6,21.7z"/>
<path fill="#AA1D22" d="M123.7,14.5c-0.4,0.2-0.8-0.2-1.2-0.2C122.9,14.2,123.3,14.5,123.7,14.5z"/>
<path fill="#AA1D22" d="M126.1,5.1c-0.1,0.2-0.4,0.2-0.5,0.1c0,0,0,0-0.1-0.1c-0.1-0.1-0.1-0.2,0-0.2S126,4.9,126.1,5.1z"/>
<path fill="#AA1D22" d="M131,5c0.1,0.1,0.3,0,0.3,0.2s-0.1,0.2-0.3,0.2s-0.2-0.1-0.3-0.2S130.9,5,131,5z"/>
<path fill="#B21E23" d="M127.1,5.1c0.2,0,0.4,0,0.4,0.2s-0.1,0.2-0.2,0.2s-0.3-0.1-0.4-0.3S127.1,5.1,127.1,5.1z"/>
<path fill="#AA1D22" d="M121.6,23.3c0.1,0,0.2,0.1,0.2,0.2s-0.1,0.2-0.2,0.2s-0.2-0.1-0.2-0.2S121.5,23.3,121.6,23.3z"/>
<path fill="#AA1D22" d="M122.4,5.8L122.4,5.8L122.4,5.8z"/>
<path fill="#B61F24" d="M73.5,20.5c-0.5,0.7-1.5,0.8-2.2,0.3c0,0-0.1,0-0.1,0s-0.4,0.1-0.4-0.1s-0.1-0.7,0-0.8
	c0.3-0.2,0.6-0.6,1.1-0.6c0.5,0.2,1.1,0.2,1.7,0c0.1,0,0.4-0.1,0.4,0.1c0.1,0.6,0.3,0.2,0.5,0.1c0.5-0.2,1.1-0.4,1.6-0.5
	c0,0.2-0.2,0.3,0.2,0.3c1.6,0,3.1,0,4.7,0c0.4,0,0.6,0.1,0.5,0.5c0,0.1,0,0.3,0,0.4c0,1.2,0,1.2-1.2,1.3c-0.4,0-0.8,0-1.3,0
	c0.5-0.6,1-0.1,1.5-0.3c-0.2-0.2-0.4-0.3-0.7-0.3c-1,0-2,0-3-0.2c-0.5,0.1-1.1,0.1-1.7,0.2c-0.1,0-0.2,0-0.2,0.1c0,0,0,0,0,0
	c0,0.5-0.3,0.4-0.6,0.4S74,21.1,74,20.9c0-0.2-0.1-0.3-0.2-0.4c-0.1-0.1-0.3-0.1-0.2-0.3s0.2-0.2-0.1-0.3s-0.3-0.1-0.4,0.1
	s0.1,0.2,0.1,0.3C73.4,20.3,73.4,20.4,73.5,20.5z M72.1,20.9c0.6,0.2,0.4-0.6,0.9-0.5C72.3,20.3,72.3,20.3,72.1,20.9L72.1,20.9z"/>
<path fill="#B21E23" d="M78.2,24.1c0.1-0.2-0.2-0.5,0.3-0.5c0.1,0,0-0.2,0-0.3s-0.1-0.4,0.1-0.6s0.3-0.5,0.6,0
	c0.3,0.4,0.9,0.4,1.3,0.1c0,0,0,0,0.1-0.1c0.2-0.2,0.2-0.1,0.3,0c0.3,0.3,0.5,0.7,0.5,1.1c0,0.1,0.1,0.3-0.1,0.3S81,24.1,81,24
	c-0.3-0.5-0.6-0.6-1.2-0.3c-0.2,0.1-0.3,0.5-0.6,0.2c0,0-0.1,0-0.1,0c0.1,0.4-0.2,0.5-0.5,0.6c-0.1,0,0,0.2-0.2,0.2
	c-0.1,0-0.2-0.2-0.2-0.3C78.1,24.3,78.2,24.2,78.2,24.1z"/>
<path fill="#B21E23" d="M70.7,24.3c0-0.2,0-0.4,0-0.6c-0.1-0.4,0.2-0.5,0.5-0.6s0.4,0.3,0.6,0.5s-0.4,0.6-0.5,0.6s-0.2,0-0.3,0.1
	s0,0.2,0,0.3c0.1,0.1,0.2,0.2,0.3,0.4c0,0.2,0,0.3-0.2,0.4s-0.4,0-0.4-0.3S70.6,24.6,70.7,24.3L70.7,24.3z"/>
<path fill="#B21E23" d="M79.5,27c0-0.3,0.2-0.5-0.1-0.7c-0.2-0.1,0-0.4,0.2-0.5s0.2,0.1,0.3,0.2s0.2,0.2,0.4,0.2s0.3-0.2,0.4,0.1
	s0,0.3-0.2,0.4S79.8,26.8,79.5,27z"/>
<path fill="#AA1D22" d="M79.2,24.4c0.4-0.1,0.8-0.1,1.1,0.1c0.3,0.2,0.2,0.4,0.1,0.6s-0.2,0.2-0.4,0.2
	C79.5,25.1,79.5,24.7,79.2,24.4z"/>
<path fill="#B21E23" d="M73.6,24.1c0.2,0,0.3,0,0.3,0.2c0,0.1,0,0.3-0.2,0.3c0,0,0,0-0.1,0c-0.3,0.1-0.6,0.1-0.8,0.2
	c-0.2,0.1-0.4,0-0.5-0.2c-0.1-0.3,0.2-0.3,0.3-0.4C72.9,24.2,73.2,24.1,73.6,24.1z"/>
<path fill="#AA1D22" d="M72.8,23c-0.3,0.1-0.6,0.2-0.9,0.2C72.2,22.6,72.2,22.6,72.8,23z"/>
<path fill="#AA1D22" d="M81.3,26.3c-0.1,0.2-0.2,0.2-0.4,0.3s-0.2-0.1-0.2-0.2s0-0.4,0.2-0.4C81.1,26.1,81.3,26.2,81.3,26.3z"/>
<path fill="#B61F24" d="M169.2,17.7c-0.3-0.1-0.6,0-0.8-0.2c-0.1,0-0.1,0-0.2,0c-0.5,0.4-1.1,0.1-1.6-0.1c-0.4-0.2-0.6-0.5-0.6-0.9
	c-0.1-0.5,0-1,0-1.4c0-0.2,0.1-0.4,0.3-0.4c0,0,0,0,0.1,0c0.6,0,1.2-0.1,1.8-0.1c0.1,0,0.1,0,0.2,0c0.6,0.1,0.9,0.3,0.9,0.9
	S169.2,16.9,169.2,17.7z"/>
<path fill="#B21E23" d="M176.9,17c0.3,0.1,0.5,0.4,0.5,0.8c0,0,0,0.1,0,0.1c0,0.1-0.1,0.2-0.1,0.2c-0.5-0.1-0.9,0.2-1.4,0
	c-0.3-0.1-0.6-0.1-0.9,0.2c0.8,0,1.5,0.2,2.2,0.6c-0.5,0-1,0-1.5,0s-0.8,0.2-1.3,0c-0.2,0-0.3-0.2-0.3-0.5c0,0,0,0,0,0
	c0-0.6,0-1.1,0-1.7c0-0.3,0.1-0.4,0.3-0.4c0.2,0,0.4-0.1,0.6-0.1c0.5,0.1,1,0.1,1.4,0c0.2,0,0.4,0,0.6,0.2c0.1,0.1,0.4,0.2,0.3,0.4
	S177,16.9,176.9,17z"/>
<path fill="#AA1D22" d="M174,14.3c0.4-0.2,0.9-0.1,1-0.6c0.3,0.1,0.5,0.3,0.6,0.5c0.1,0.3,0.8,1-0.3,0.8c-0.1,0-0.2,0.1-0.2,0.3
	c0.2,0.1,0.5,0.1,0.7,0c0.1,0,0.2-0.1,0.3,0.1c0,0.1,0,0.2,0,0.3c-0.1,0.1-0.2,0-0.3,0c-0.1,0-0.3-0.1-0.4-0.1
	c-0.6,0-0.9-0.3-0.8-0.9S174.5,14.2,174,14.3z"/>
<path fill="#AA1D22" d="M174.1,10.7c-0.4-0.1-0.7-0.3-1.1-0.4c0.1-0.2,0.2-0.2,0.3-0.2l1.2,0.5c0,0,0.2,0.1,0.1,0.1
	c-0.3,0.1,0.4,0.7-0.3,0.5c0.1,0.1,0.2,0.1,0.2,0.2c0.1,0.1,0.1,0.1,0.1,0.2c0,0.1-0.1,0.1-0.2,0.1c-0.3,0-0.5-0.2-0.6-0.4
	c-0.1-0.3-0.3-0.3-0.5-0.1s-0.5,0.1-0.7-0.1s-0.2-0.2-0.1-0.4s0.2-0.1,0.4-0.1C173.2,10.7,173.6,10.7,174.1,10.7
	c0,0.1,0.1,0.1,0.2,0L174.1,10.7z"/>
<path fill="#AA1D22" d="M168.5,19.3l-1.2-0.2c-0.1,0-0.3,0-0.3-0.2c0-0.2,0.2-0.3,0.3-0.3c0.5,0.1,1,0.2,1.5,0.3
	c0.1,0,0.1,0.1,0.1,0.2S168.8,19.3,168.5,19.3z"/>
<path fill="#AA1D22" d="M176.5,15.6c0.4-0.1,0.6-0.2,0.4-0.5c0.4,0.1,0.7,0.3,0.5,0.7S176.8,15.8,176.5,15.6z"/>
<path fill="#AA1D22" d="M177.4,11.8c-0.3,0.1-0.7,0.1-1,0c-0.1,0-0.2,0-0.2-0.2c0-0.1,0.1-0.2,0.2-0.2
	C176.8,11.5,177.1,11.6,177.4,11.8z"/>
<path fill="#AA1D22" d="M167.2,13.2c-0.1-0.1-0.4,0-0.4-0.2s0.2-0.2,0.3-0.2c0.1,0,0.3,0.1,0.3,0.2c0,0,0,0,0,0
	C167.4,13.1,167.4,13.2,167.2,13.2z"/>
<path fill="#AA1D22" d="M175.6,12.3c0.2-0.1,0.5,0,0.6,0.2c0,0.1,0,0.2-0.1,0.2C175.8,12.7,175.6,12.5,175.6,12.3z"/>
<path fill="#AA1D22" d="M166.9,18.6c0,0.1,0,0.3-0.2,0.2c-0.1,0-0.2-0.1-0.2-0.2c0-0.1,0.1-0.2,0.3-0.3
	C166.9,18.4,166.9,18.5,166.9,18.6z"/>
<path fill="#B21E23" d="M52.3,19.5c0.2,0.5,0.3,0.5,1,0v2.4c0,0.2-0.1,0.2-0.2,0.2c-0.3,0-0.5,0-0.8,0c-0.2-0.1-0.4,0-0.5,0.2
	c-0.2,0.3,0.2,0.3,0.1,0.5c-0.2,0-0.4-0.1-0.5-0.1s-0.4-0.2-0.4,0.2c0,0.3-0.3,0.3-0.6,0.3s-0.2-0.2-0.2-0.4s-0.1-0.4-0.4-0.5
	c-1.4-0.5-2.8-1-4.2-1.3c-0.2,0-0.3-0.1-0.4-0.3c0.4-0.2,0.9-0.2,1.3-0.1c0.8,0.3,1.6,0.5,2.5,0.5c0.6,0,1.1-0.3,1.5-0.7
	c0.2-0.2,0.3-0.4,0.6-0.3c0.6,0.2,0.8-0.2,1.1-0.6L52.3,19.5z M51.9,20.9c0.2,0.6,0.5,0.6,1,0h-0.8c0-0.1,0-0.3-0.2-0.3
	c-0.3,0-0.6,0.2-0.7,0.5C51.5,21.2,51.7,21,51.9,20.9z"/>
<path fill="#B61F24" d="M41.1,23.6c0-0.5,0-0.9,0-1.3c0-0.6,0.6-1.1,1.4-1.1c0.5,0,1,0.1,1.5,0.2c0.2,0,0.3,0.1,0.3,0.2
	c0,0.4,0,0.8,0,1.1c0,0.2-0.2,0.2-0.3,0.2c-0.3-0.1-0.7-0.1-1-0.1c-0.5,0.1-1,0.2-1.5,0.1C41.1,22.9,41.3,23.4,41.1,23.6z"/>
<path fill="#B21E23" d="M51.1,24.3c0.2-0.4,0.4-0.5,0.8-0.3c0.3,0.2,0.6,0.2,0.9,0c0,0,0-0.1,0.1-0.1c0.1-0.1,0.1-0.2,0.2-0.1
	c0.1,0,0.2,0.2,0.2,0.3c0,0.5,0,1,0,1.4c0,0.2,0,0.3-0.2,0.2c-0.3,0-0.5-0.1-0.8-0.2c-0.1,0-0.3-0.1-0.2-0.4c0.2-0.5,0-0.8-0.6-0.9
	L51.1,24.3z"/>
<path fill="#B21E23" d="M47.9,28.6c-0.2,0.1-0.4,0.4-0.7,0.1c-0.1-0.1-0.2,0.1-0.2,0.1s-0.5,0.2-0.8,0.3c0,0-0.1,0-0.1,0
	C46,28.8,46,28.4,46,28.1c0.1-0.1,0.2-0.2,0.2,0c0.2,0.6,0.7,0.3,1,0.3S47.7,28.4,47.9,28.6z"/>
<path fill="#AA1D22" d="M41.9,25.5c-0.2-0.3,0.1-0.6,0.1-0.9c0-0.1,0.2-0.1,0.2-0.1s0.4,0.1,0.6,0.1s0.3,0.2,0.2,0.4
	s-0.3,0.7-0.8,0.5C42,25.5,41.9,25.5,41.9,25.5L41.9,25.5z"/>
<path fill="#B61F24" d="M49.4,27.6c0.3-0.1,0.5-0.3,0.3-0.6c-0.1-0.2,0.1-0.3,0.2-0.2c0.3,0.1,0.5,0.3,0.6,0.6
	c0.1,0.4,0,0.5-0.4,0.4C49.9,27.8,49.7,27.8,49.4,27.6z"/>
<path fill="#AA1D22" d="M49.4,25.5c0.2,0.1,0.2,0.4,0.3,0.6c0.1,0.1,0.1,0.3,0,0.5l0,0c-0.1,0-0.2,0-0.3-0.1
	c-0.1-0.2-0.3-0.4-0.4-0.6C49.1,25.8,49.2,25.6,49.4,25.5z"/>
<path fill="#AA1D22" d="M43.2,26.2c-0.3,0.6-0.5,0.7-1,0.4C42.5,26.4,42.8,26.3,43.2,26.2z"/>
<path fill="#AA1D22" d="M49.5,28.7c-0.2-0.1-0.3-0.1-0.4-0.3s0.1-0.2,0.2-0.2s0.3,0.1,0.3,0.3S49.7,28.7,49.5,28.7z"/>
<path fill="#AA1D22" d="M41.9,27.2c0.2,0,0.2,0.1,0.2,0.2s0,0.2-0.2,0.2s-0.3,0-0.3-0.2C41.6,27.4,41.7,27.3,41.9,27.2z"/>
<path fill="#AA1D22" d="M46.1,27.1c0.1,0,0.1,0.1,0.2,0.1c0.1,0.1,0.3,0.1,0.4,0.2c0,0,0,0.1-0.1,0.1c-0.2,0-0.4,0-0.5-0.2
	C46.1,27.3,46.1,27.3,46.1,27.1L46.1,27.1z"/>
<path fill="#AA1D22" d="M43.6,20.9c0.3-0.1,0.5-0.1,0.7,0.1s0,0.2-0.1,0.2C44,21.2,43.9,21,43.6,20.9z"/>
<path fill="#AA1D22" d="M41.9,25.5c0,0.1,0.2,0.3,0,0.4c-0.1,0-0.2,0-0.3-0.1c0,0,0,0,0,0C41.6,25.5,41.8,25.6,41.9,25.5L41.9,25.5z
	"/>
<path fill="#B61F24" d="M159.3,12.4c-0.3,0-0.5,0.1-0.8,0.3c-0.2,0.1-0.3,0.3-0.2,0.5c0,0,0,0,0,0c0,0.2,0.3,0.4,0,0.6
	c-0.1,0.1,0.1,0.1,0.3,0.1c0.3-0.2,0.7-0.2,1-0.1c0.4,0,0.7,0.3,0.7,0.7c-0.8,0-1.6,0-2.3-0.3c-0.3-0.1-0.5,0-0.6,0.3
	s0.2,0.3,0.4,0.3c0.4,0.2,0.9,0.3,1.4,0.4c-0.8,0.4-1.8,0.3-2.5-0.3c-0.7-0.4-1.5-0.8-2.3-1.1c-0.2-0.1-0.5-0.1-0.7,0
	c-0.1,0.1-0.3,0.1-0.5,0c-0.3-0.2-0.6-0.4-0.9-0.5c0.4-0.2,0.7-0.7,1.3-0.7c-0.3-0.2-0.6-0.1-0.9-0.3c0.7-0.5,1.3-0.9,2-1.4
	c0.1-0.1,0.3-0.1,0.4,0c0.4,0.4,1,0.5,1.5,0.8c0.6,0.3,1.2,0.4,1.9,0.6C158.7,12.2,159,12.3,159.3,12.4z"/>
<path fill="#B21E23" d="M160.4,20c0.4,0,0.4,0.4,0.4,0.6s-0.4,0.1-0.6,0.1s-0.4-0.4-0.7,0.1c0,0.1-0.6-0.1-0.8-0.4
	c-0.1-0.2-0.3-0.2-0.5-0.2c-0.5,0.1-0.9-0.2-1.3-0.5c0.5-0.1,1-0.2,1.4-0.1c0.1,0,0.3,0.1,0.4-0.1c0-0.1-0.1-0.2,0.1-0.2
	s0.2,0.1,0.2,0.2c0,0.4,0.3,0.3,0.5,0.2c0.4-0.2,0.6-0.2,0.6,0.3C160.2,20,160.3,20,160.4,20L160.4,20L160.4,20z M159,19.6L159,19.6
	L159,19.6L159,19.6z"/>
<path fill="#B21E23" d="M155,19.9c-0.1,0.4-0.5,0.7-0.9,0.6c0,0-0.1,0-0.1,0c-0.6-0.2-1.1-0.2-1.7-0.2c-0.2,0-0.3,0-0.4-0.2
	c-0.1-0.2,0.2-0.2,0.3-0.3c0.4-0.3,0.8-0.5,1.2-0.5c0.2-0.1,0.6-0.1,0.6,0.4c0,0.3,0.1,0.4,0.4,0.2C154.5,19.8,154.7,19.8,155,19.9z
	"/>
<path fill="#B21E23" d="M159.4,17.9l-1.4-0.1c-0.1,0-0.3,0-0.3-0.2s0.1-0.2,0.3-0.2l2.6,0.1c0.4,0,0.2,0.4,0.2,0.6
	C160.4,17.9,159.9,17.9,159.4,17.9z"/>
<path fill="#B21E23" d="M160.9,18.2c0,0.1,0,0.2,0,0.3s-0.1,0.3-0.3,0.2c-0.4-0.3-0.9-0.2-1.1,0.1c-0.1,0.2-0.3,0.1-0.4,0
	c-0.1-0.1-0.1-0.2-0.1-0.3c0,0,0,0,0.1-0.1c0.3-0.2,0.1-0.3,0-0.5l0.4-0.1C159.9,18.1,160.4,18.1,160.9,18.2z"/>
<path fill="#AA1D22" d="M160.7,15.8c-0.1-0.1-0.2-0.2-0.2-0.3c-0.1-0.1,0-0.2,0.1-0.2s0.1-0.1,0.2-0.1c0.2,0.2,0.1,0.5,0.1,0.7
	s-0.1,0.2-0.3,0.2c-0.3,0-0.6-0.2-1,0c-0.1,0-0.1,0-0.1-0.1c0,0,0,0,0,0c0-0.1,0-0.2,0.1-0.2L160.7,15.8z"/>
<path fill="#AA1D22" d="M151.3,20.4c0,0.4-0.2,0.8-0.5,1c-0.1,0.1-0.3,0.1-0.4,0c-0.1-0.1,0.1-0.3,0.1-0.3
	C150.9,21.1,150.9,20.5,151.3,20.4z"/>
<path fill="#AA1D22" d="M160.8,21.2c-0.4,0.9-0.4,1-1.3,0.7C160,22,160.3,21.6,160.8,21.2z"/>
<path fill="#AA1D22" d="M151.9,22.4c-0.1,0.2-0.2,0.3-0.4,0.3s-0.2-0.2-0.3-0.4c0-0.1,0.1-0.2,0.2-0.2c0,0,0.1,0,0.1,0
	C151.7,22.1,151.9,22.1,151.9,22.4z"/>
<path fill="#AA1D22" d="M150.2,22.9l-0.7,0.4c0-0.2-0.1-0.5,0-0.6S149.9,22.8,150.2,22.9z"/>
<path fill="#0C0C0C" d="M160.9,18.2c-0.5,0-1-0.1-1.4-0.2v-0.1C159.9,17.9,160.4,17.9,160.9,18.2C160.9,18.1,160.9,18.1,160.9,18.2z
	"/>
<path fill="#B21E23" d="M160.2,12.5c0.2,0,0.4-0.2,0.5,0.2c0,0.1,0,0.2-0.2,0.2C160.3,13,160.2,12.8,160.2,12.5z"/>
<path fill="#AA1D22" d="M158,15.7c0.3-0.1,0.5-0.1,0.6,0.2C158.4,16.1,158.1,16,158,15.7z"/>
<path fill="#B21E23" d="M60.7,21.2c0.2,0.1,0,0.3,0.1,0.4s0.2,0.2,0.1,0.4s-0.4,0-0.5-0.1c-0.4-0.3-0.9-0.5-1.4-0.5
	c-0.4,0-0.7,0-1.1,0c-0.1,0-0.3,0-0.2-0.2s-0.2-0.5,0.2-0.6c0.6-0.2,1.2-0.4,1.9-0.3c0.2,0,0.5,0,0.7-0.1c0.4-0.1,0.6,0,0.5,0.4
	C60.9,20.8,61.1,21,60.7,21.2C60.8,21.1,60.7,21,60.7,21.2L60.7,21.2z"/>
<path fill="#AA1D22" d="M59.6,18.4c-0.2-0.2-0.5,0.1-0.5-0.3s0.2-0.4,0.4-0.4c0.4-0.1,0.8-0.1,1.2-0.2c0.1,0,0.1,0,0.2,0.1
	s0,0.2-0.1,0.2c-0.1,0-0.3,0.1-0.4,0.1c-0.3,0.2-0.6,0.3-0.3,0.8c0.1,0.1,0.1,0.2,0.1,0.4c0.1,0.2,0,0.3-0.2,0.2
	c-0.5-0.2-1,0-1.3,0.3c-0.2,0.1-0.3,0.3-0.5,0.3s-0.4,0-0.5-0.2s0.2-0.2,0.3-0.3C58.5,19,59.1,18.8,59.6,18.4z"/>
<path fill="#B21E23" d="M58.3,26.5c-0.2-0.4-0.2-0.7,0.3-0.8c0.4-0.1,0.9,0.2,1,0.6c0,0.1,0.1,0.2,0,0.3c-0.5,0.3-0.8,0.9-1.5,1
	c-0.3,0-0.4,0-0.4-0.3c0-0.2,0-0.4,0.1-0.6C57.8,26.3,58.1,26.6,58.3,26.5z"/>
<path fill="#AA1D22" d="M60.7,27.2h-0.2c-0.3,0-0.5-0.3-0.5-0.6c0,0,0-0.1,0-0.1c0-0.1,0.1-0.3,0.2-0.3c0.1,0,0.2,0.1,0.3,0.2
	c0.1,0.2,0.3,0.3,0.4,0.5s0.2,0.3,0.2,0.3S60.8,27.2,60.7,27.2z"/>
<path fill="#AA1D22" d="M58.5,24.5c0.2-0.3,0.6-0.5,1-0.4c0.1,0.1,0.1,0.2,0,0.3s-0.2,0.2-0.2,0.1C59.1,24.1,58.8,24.4,58.5,24.5z"
	/>
<path fill="#AA1D22" d="M60.3,23.3c-0.2,0.2-0.5,0.3-0.7,0.4c-0.1,0-0.2,0-0.2-0.1c0,0,0-0.1,0-0.1c0-0.2,0.1-0.2,0.2-0.2H60.3z"/>
<path fill="#B21E23" d="M141.4,12.4c0.4,0,0.6,0.2,0.8,0.4s0.4,0.3,0.4-0.1c0-0.3,0.3-0.2,0.3-0.3c-0.3-0.3-0.3-1-1.1-0.9l0,0
	c-0.4-0.3-0.8,0.2-1.3,0c0.6-0.5,1.3-0.9,2-1.2c0.3-0.1,0.5,0,0.5,0.4c0,1.8,0,3.6,0,5.3c0,0.4,0.1,0.6,0.5,0.6s1,0,1.5,0v0.1
	c-0.3,0.3-0.7,0.4-1.1,0.3c-0.4-0.1-0.9-0.1-1.2,0.1c0.7,0.1,1.3,0.1,2,0.2c-0.1,0.3-0.4,0.5-0.8,0.5c-0.7-0.1-1.4,0-2,0.2
	c-0.6,0.2-1.2-0.1-1.4-0.7c0,0,0,0,0-0.1c0.2,0,0.4,0.1,0.5,0.1s0.4,0.2,0.6,0s0-0.4-0.1-0.6c0.2-0.1,0.4-0.1,0.6-0.1
	c0.2,0,0.2-0.2,0.3-0.3s0.1-0.1,0-0.2s-0.3,0-0.3,0.1s-0.3,0.1-0.4,0c-0.5-0.2-1-0.5-1.5-0.2c-0.1,0.1-0.3,0.1-0.3-0.1
	s-0.1-0.6,0.1-0.6c0.4-0.1,0.8-0.1,1.1-0.1c0,0,0.1,0.1,0.1,0.2c0.1,0.1,0.2,0.1,0.2,0.1l0.1,0.1h0.1h-0.1c0-0.1-0.1-0.1-0.2-0.1
	c0.1-0.6,0.8-0.5,1.2-0.9c-0.4,0-0.7-0.2-1.2-0.1s-0.9-0.1-1.3,0c-0.1,0-0.1-0.2-0.1-0.2c0-0.2,0-0.4,0.1-0.6
	c0.2,0.2,0.3,0.6,0.7,0.3l-0.3-0.4c0.4,0,0.9,0,1.3,0c-0.3-0.2-0.7-0.2-0.6-0.6C140.9,12.7,141.1,12.5,141.4,12.4z"/>
<path fill="#AA1D22" d="M136.4,18c0.3-0.7,0.9-1.2,1.7-1.5c0.2,0,0.4,0,0.6,0c0.2,0,0.2,0.2,0.2,0.3s-0.1,0.2-0.2,0.2
	c-0.7,0-0.7,0-0.6,0.6c0,0.4-0.1,0.4-0.4,0.4L136.4,18z"/>
<path fill="#AA1D22" d="M145.1,16.6L145.1,16.6l2.4-0.1c0.1,0,0.2,0,0.2,0.1s-0.1,0.2-0.2,0.1c-0.5-0.2-1,0.2-1.5,0.1
	c0,0-0.1,0-0.1,0.1c0.2,0.4-0.3,0.6-0.1,0.9l0,0c-0.2,0.2-0.5,0.2-0.9,0.1c0.7-0.2,0.5-0.7,0.8-1C145.6,16.7,145.3,16.6,145.1,16.6z
	"/>
<path fill="#AA1D22" d="M140.2,13.2c-0.6-0.2-0.4-0.7-0.3-1s0.4-0.3,0.7-0.3s0.5,0.1,0.7,0.1s0.2,0,0.3,0.1s-0.1,0.2-0.2,0.2
	l-0.5,0.1c-0.3,0-0.6,0-0.4,0.4C140.5,13,140.4,13.2,140.2,13.2z"/>
<path fill="#0C0C0C" d="M140.2,13.2c0.1-0.1,0.3-0.2,0.2-0.4c-0.2-0.4,0.1-0.4,0.4-0.4l0.5-0.1c0,0,0,0.1,0,0.1
	c-0.3,0-0.4,0.3-0.4,0.5c0,0.3,0.3,0.3,0.6,0.6c-0.4,0-0.9,0-1.3,0l0,0L140.2,13.2L140.2,13.2z"/>
<path fill="#AA1D22" d="M146.6,16.9c0.1,0,0.4-0.1,0.4,0.1s-0.3,0.2-0.5,0.2s-0.4,0-0.4-0.1S146.5,17,146.6,16.9z"/>
<path fill="#AA1D22" d="M145.7,17.9c0.3-0.2,0.7-0.2,1,0C146.4,18,146,18.2,145.7,17.9L145.7,17.9z"/>
<path fill="#AA1D22" d="M141.8,11.5L141.8,11.5L141.8,11.5c0.2,0.1,0.4,0.2,0.3,0.5s-0.1,0.2-0.2,0.1S141.6,11.7,141.8,11.5z"/>
<path fill="#B21E23" d="M140.2,13.3v0.1C140.1,13.4,140.2,13.4,140.2,13.3z"/>
<path fill="#B21E23" d="M91.4,19.4c-0.2-0.1-0.5,0.3-0.6-0.1c-0.1-0.4,0-0.8,0.3-1c0.4-0.4,1-0.5,1.5-0.4c0.2,0,0.3,0.3,0.2,0.4
	c-0.4,0.2-0.1,0.3,0,0.5c0.1,0.1,0,0.3-0.1,0.4c0,0-0.1,0-0.2,0C92.2,19.3,91.8,19.4,91.4,19.4z"/>
<path fill="#B21E23" d="M95.6,20.4c0.3,0,0.6,0.2,0.4-0.3c-0.1-0.4,0.3-0.4,0.6-0.4c0.5-0.1,0.7,0.3,0.9,0.7s-0.2,0.4-0.4,0.6
	s-0.4,0.2-0.5,0.5s-0.6,0.2-0.8,0.2s-0.1-0.3-0.1-0.5S95.5,20.6,95.6,20.4z"/>
<path fill="#AA1D22" d="M94.4,17.8l0.7-0.1c0.1,0,0.2-0.1,0.3,0s0,0.2-0.1,0.3c-0.1,0.1-0.2,0.2-0.3,0.1c0,0,0,0,0,0
	C94.8,18,94.6,17.9,94.4,17.8L94.4,17.8z"/>
<path fill="#AA1D22" d="M98.1,17.3l-0.7,0.2c-0.1,0-0.2,0-0.3-0.1s0-0.2,0.2-0.2h0.7V17.3z"/>
<path fill="#B21E23" d="M97.4,18.2c0,0.1-0.1,0.3-0.2,0.3c-0.1,0-0.2-0.1-0.2-0.2c0,0,0,0,0,0c0-0.2,0.1-0.2,0.2-0.2
	S97.4,18,97.4,18.2z"/>
<path fill="#B21E23" d="M107.9,19.5c0,0.2,0,0.3-0.1,0.4s-0.2,0.3,0,0.5c0.2,0.2,0.2,0.4,0,0.6c-0.2,0.1-0.4,0-0.6,0
	s-0.1-0.2-0.1-0.3c0.2-0.3,0-0.5-0.3-0.7c-0.1,0-0.2-0.1-0.3-0.2c-0.1-0.1-0.3-0.1-0.2-0.3s0.2-0.1,0.3-0.1c0.3-0.1,0.5-0.2,0.7-0.3
	c0.2-0.1,0.3-0.2,0.5-0.2S107.9,19.4,107.9,19.5z"/>
<path fill="#AA1D22" d="M100.8,16.8c0.7-0.7,0.9-0.7,1.5,0C101.8,16.7,101.3,16.7,100.8,16.8z"/>
<path fill="#AA1D22" d="M102.1,22.6c0.1,0.2,0.1,0.3-0.2,0.4s-0.2-0.2-0.2-0.3c0-0.1,0-0.1-0.1-0.2c-0.1-0.1-0.3-0.2-0.2-0.3
	c0.1-0.1,0.2-0.1,0.4-0.1c0.2,0,0.3,0.2,0.3,0.4L102.1,22.6z"/>
<path fill="#AA1D22" d="M101.3,20.2c0.3-0.1,0.6-0.1,0.8-0.2s0.3,0,0.3,0.2s-0.1,0.3-0.2,0.3C101.8,20.6,101.6,20.3,101.3,20.2z"/>
<path fill="#B21E23" d="M134.2,13.9c0.4,0.1,0.9,0.2,1,0.6s-0.5,0.5-0.8,0.7c-0.4,0.4-0.9,0.7-1.5,0.8c-0.1,0-0.1,0.1-0.2,0
	c-0.4-0.1-0.8,0-1.2,0.2l-0.4,0.1c-0.4-0.4-1-0.8-1.5-1c-0.1,0-0.2-0.1-0.1-0.3s0.1-0.2,0.3-0.2c0.4,0.2,0.8,0,1.2,0.1
	s1.3-0.4,1.3-0.5s-0.1-0.3,0.1-0.3s0.4,0.1,0.4,0.3s0.2,0.4,0.2,0.7s0.3,0.3,0.5,0.1c0-0.2-0.4-0.2-0.1-0.5c0.3,0.1,0.6,0.1,0.9,0.1
	C133.8,14.4,133.8,14.3,134.2,13.9L134.2,13.9z"/>
<path fill="#AA1D22" d="M130.9,19.6L130.9,19.6c0.2,0.1,0.5-0.1,0.5,0.2s-0.4,0.3-0.6,0.4s-0.4-0.2-0.3-0.4s0-0.7,0-1
	s-0.1-0.5,0.3-0.5c0.1,0,0.2-0.2,0.1-0.3c-0.5-0.1-0.3-0.5-0.4-0.9c0.3,0.4,0.6,0.1,0.9,0.2c0.1,0,0.3,0.1,0.2,0.2
	c-0.3,0.3,0,0.4,0.1,0.6c0.1,0.1,0.1,0.3,0.1,0.4c-0.1,0.1-0.2,0.1-0.4,0c-0.3-0.1-0.6-0.2-0.4,0.4C131,19,130.9,19.3,130.9,19.6z
	 M131.1,17.8L131.1,17.8L131.1,17.8L131.1,17.8z"/>
<path fill="#AA1D22" d="M133.4,14.7c-0.4,0-0.6-0.1-0.5-0.6c0-0.1,0-0.2,0-0.2c-0.3-0.1-0.2-0.3-0.1-0.5s0.4-0.1,0.6-0.1
	c0.3,0.1,0.6,0.2,0.8,0.5l0,0c-0.4,0-0.9,0-0.8,0.7C133.4,14.6,133.4,14.6,133.4,14.7z"/>
<path fill="#AA1D22" d="M132.9,17.5c-0.2,0-0.4-0.1-0.5-0.3c-0.1-0.2,0.6-0.6,1-0.5c0.2,0,0.4-0.1,0.4,0.2S133.3,17.5,132.9,17.5z"
	/>
<path fill="#060606" d="M133.4,14.7c0,0,0-0.1,0-0.1c-0.1-0.7,0.4-0.6,0.8-0.7c-0.4,0.5-0.4,0.6,0.1,1c-0.3,0-0.6,0-0.9-0.1
	L133.4,14.7z"/>
<path fill="#AA1D22" d="M131.1,16.3l0.4-0.1c0,0.4-0.3,0.7-0.6,0.7c-0.1,0-0.2,0-0.2,0c-0.2-0.1-0.1-0.2,0-0.3
	S130.9,16.4,131.1,16.3z"/>
<path fill="#AA1D22" d="M130.7,14c-0.1,0-0.3-0.1-0.3-0.2c0.1-0.2,0.3-0.3,0.5-0.3c0.1,0,0.2,0.1,0.2,0.2c0,0,0,0,0,0.1
	C131.1,14,130.9,14,130.7,14z"/>
<path fill="#AA1D22" d="M130.9,20.7c0.2-0.2,0.3-0.4,0.6-0.3c0.1,0,0.1,0.2,0.1,0.3c0,0,0,0,0,0C131.4,21,131.1,20.8,130.9,20.7z"/>
<path fill="#AA1D22" d="M129.7,14.3c0.2-0.2,0.4-0.4,0.6-0.2c0.1,0.1,0.1,0.2,0,0.2S130,14.4,129.7,14.3z"/>
<path fill="#AA1D22" d="M132.1,12.7c0.1,0,0.2,0,0.2,0.2c0,0.1-0.1,0.3-0.3,0.3c-0.1,0-0.2-0.1-0.2-0.2S132,12.8,132.1,12.7z"/>
<path fill="#AA1D22" d="M131.6,13c0.1,0.3,0.4,0.3,0.3,0.5s-0.2,0.1-0.3,0S131.6,13.3,131.6,13z"/>
<path fill="#AA1D22" d="M119.3,19.2c-0.2-0.1-0.1-0.4-0.4-0.4s-0.1-0.2-0.1-0.2c0-0.6,0-1.2,0-1.8c0-0.2,0-0.4,0.3-0.4
	s0.2,0.2,0.2,0.4L119.3,19.2z"/>
<path fill="#B61F24" d="M119.3,12.2c-0.1,0.2,0.2,0.6-0.2,0.6s-0.2-0.4-0.2-0.7c0-0.1,0-0.1,0-0.2c0-0.2,0-0.5,0.3-0.5
	s0.1,0.3,0.2,0.4C119.3,12,119.3,12.1,119.3,12.2z"/>
<path fill="#AA1D22" d="M118.7,23.4c0.4,0.3,0.6,0.5,0.5,0.9c0,0.1-0.2,0.2-0.3,0.2c0,0-0.1,0-0.1,0
	C118.5,24.2,118.8,23.8,118.7,23.4z"/>
<path fill="#AA1D22" d="M119.3,21.2c0,0.1,0,0.2-0.2,0.2s-0.4,0-0.4-0.3c0-0.1,0.1-0.2,0.2-0.2S119.3,21,119.3,21.2z"/>
<path fill="#030202" d="M24.7,28.7L24.7,28.7L24.7,28.7L24.7,28.7z"/>
<path fill="#040404" d="M72.1,20.9c0.2-0.6,0.2-0.6,0.9-0.5C72.5,20.3,72.7,21.1,72.1,20.9z"/>
<path fill="#030202" d="M174.1,10.7l0.2,0.1C174.2,10.8,174.1,10.7,174.1,10.7L174.1,10.7z"/>
<path fill="#030202" d="M52.1,20.9h0.8c-0.5,0.6-0.8,0.6-1,0H52.1z"/>
<path fill="#080808" d="M52.1,20.9h-0.2c-0.2,0-0.4,0.2-0.8,0.2c0.1-0.3,0.4-0.5,0.7-0.5C52.2,20.6,52.1,20.8,52.1,20.9z"/>
<path fill="#030202" d="M159,19.6L159,19.6L159,19.6L159,19.6z"/>
<path fill="#030202" d="M160.4,20L160.4,20l-0.1,0.1L160.4,20z"/>
<path fill="#020101" d="M60.7,21.2L60.7,21.2C60.7,21,60.7,21.1,60.7,21.2L60.7,21.2z"/>
<path fill="#030202" d="M141.4,15.5h0.1H141.4L141.4,15.5L141.4,15.5z"/>
<path fill="#030202" d="M141.4,15.5c-0.1,0-0.2,0-0.2-0.1l0.1-0.1C141.3,15.4,141.3,15.4,141.4,15.5L141.4,15.5z"/>
<path fill="#030202" d="M131.1,17.8L131.1,17.8L131.1,17.8L131.1,17.8z"/>
</svg>
